<?xml version="1.0" encoding="UTF-8" standalone="no"?>
<svg width="93px" height="82px" viewBox="0 0 93 82" version="1.1" xmlns="http://www.w3.org/2000/svg" xmlns:xlink="http://www.w3.org/1999/xlink" xmlns:sketch="http://www.bohemiancoding.com/sketch/ns">
    <!-- Generator: Sketch 3.2.2 (9983) - http://www.bohemiancoding.com/sketch -->
    <title>Imported Layers + Rectangle 93</title>
    <desc>Created with Sketch.</desc>
    <defs></defs>
    <g id="Объявление" stroke="none" stroke-width="1" fill="none" fill-rule="evenodd" sketch:type="MSPage">
        <g id="Imported-Layers-+-Rectangle-93" sketch:type="MSLayerGroup" transform="translate(-5.000000, -6.000000)">
            <g id="Imported-Layers" stroke="#00B3B3" stroke-width="2" fill="#FFF7CC" stroke-linecap="round" sketch:type="MSShapeGroup" fill-opacity="0.8" stroke-linejoin="round">
                <g>
                    <path d="M29.9943068,64.1672312 C28.0366594,65.1794414 25.6226935,64.4006589 24.6169038,62.4555062 L7.83276883,29.9957315 C6.82055856,28.0381616 7.59934107,25.6241952 9.54449385,24.6183286 L42.0042685,7.83290909 C43.9618384,6.82062135 46.3758048,7.59940436 47.3816714,9.54463411 L64.1670909,42.0056932 C65.1793786,43.9633406 64.4005956,46.3773065 62.4553659,47.3830962 L29.9943068,64.1672312 Z" id="Stroke-8" transform="translate(36.000000, 36.000000) rotate(11.000000) translate(-36.000000, -36.000000) "></path>
                    <path d="M39.9943068,69.1672312 C38.0366594,70.1794414 35.6226935,69.4006589 34.6169038,67.4555062 L17.8327688,34.9957315 C16.8205586,33.0381616 17.5993411,30.6241952 19.5444938,29.6183286 L52.0042685,12.8329091 C53.9618384,11.8206214 56.3758048,12.5994044 57.3816714,14.5446341 L74.1670909,47.0056932 C75.1793786,48.9633406 74.4005956,51.3773065 72.4553659,52.3830962 L39.9943068,69.1672312 Z" id="Stroke-9" transform="translate(46.000000, 41.000000) rotate(11.000000) translate(-46.000000, -41.000000) "></path>
                    <path d="M50.9943068,74.1672312 C49.0366594,75.1794414 46.6226935,74.4006589 45.6169038,72.4555062 L28.8327688,39.9957315 C27.8205586,38.0381616 28.5993411,35.6241952 30.5444938,34.6183286 L63.0042685,17.8329091 C64.9618384,16.8206214 67.3758048,17.5994044 68.3816714,19.5446341 L85.1670909,52.0056932 C86.1793786,53.9633406 85.4005956,56.3773065 83.4553659,57.3830962 L50.9943068,74.1672312 Z" id="Stroke-10" transform="translate(57.000000, 46.000000) rotate(11.000000) translate(-57.000000, -46.000000) "></path>
                </g>
            </g>
           
        </g>
    </g>
</svg>