<svg version="1.1" xmlns="http://www.w3.org/2000/svg" xmlns:xlink="http://www.w3.org/1999/xlink" x="0" y="0" width="1430" height="1528" viewBox="0, 0, 1430, 1528">
  <g id="Layer_1">
    <path d="M795,586 L795,861" fill-opacity="0" stroke="#FF0000" stroke-width="6" stroke-miterlimit="10"></path>
  </g>

<g id="um-station-1303"><rect x="785" y="582" width="21" height="7" fill="#ff0000" style="cursor: pointer;" transform="matrix(1,0,0,1,0,0)"></rect><rect x="610.2656" y="578" width="168.734375" height="15" fill="rgba(255,255,255,0.75)" style="cursor: pointer;"></rect><text x="0" y="0" fill="#787878" style="font-size: 15px; cursor: pointer;" transform="matrix(1,0,0,1,612.2656,590)">Проспект Космонавтов</text><g style="opacity: 0;"><circle cx="795.5" cy="585.5" r="11" fill="#4c4c4c" style="cursor: pointer;"></circle><path d="M13.5,15.5c-0.266,0,-0.52,-0.105,-0.707,-0.293l-3.141,-3.141c-0.391,-0.391,-0.391,-1.023,0,-1.414s1.023,-0.391,1.414,0l2.434,2.434l4.391,-4.392c0.391,-0.391,1.023,-0.391,1.414,0s0.391,1.023,0,1.414l-5.098,5.099C14.02,15.395,13.766,15.5,13.5,15.5z" transform="matrix(1,0,0,1,781.5,573.5)" fill="#ffffff" style="cursor: pointer;"></path></g></g><g id="um-station-1304"><rect x="784.875" y="616" width="7" height="7" fill="#ff0000" style="cursor: pointer;" transform="matrix(1,0,0,1,0,0)"></rect><rect x="709.5625" y="612" width="69.3125" height="15" fill="rgba(255,255,255,0.75)" style="cursor: pointer;"></rect><text x="0" y="0" fill="#787878" style="font-size: 15px; cursor: pointer;" transform="matrix(1,0,0,1,711.5625,624)">Уралмаш</text><g style="opacity: 0;"><circle cx="795.375" cy="619.5" r="11" fill="#4c4c4c" style="cursor: pointer;"></circle><path d="M13.5,15.5c-0.266,0,-0.52,-0.105,-0.707,-0.293l-3.141,-3.141c-0.391,-0.391,-0.391,-1.023,0,-1.414s1.023,-0.391,1.414,0l2.434,2.434l4.391,-4.392c0.391,-0.391,1.023,-0.391,1.414,0s0.391,1.023,0,1.414l-5.098,5.099C14.02,15.395,13.766,15.5,13.5,15.5z" transform="matrix(1,0,0,1,781.375,607.5)" fill="#ffffff" style="cursor: pointer;"></path></g></g><g id="um-station-1305"><rect x="784.875" y="651" width="7" height="7" fill="#ff0000" style="cursor: pointer;" transform="matrix(1,0,0,1,0,0)"></rect><rect x="634.9375" y="647" width="143.9375" height="15" fill="rgba(255,255,255,0.75)" style="cursor: pointer;"></rect><text x="0" y="0" fill="#787878" style="font-size: 15px; cursor: pointer;" transform="matrix(1,0,0,1,636.9375,659)">Машиностроителей</text><g style="opacity: 0;"><circle cx="795.375" cy="654.5" r="11" fill="#4c4c4c" style="cursor: pointer;"></circle><path d="M13.5,15.5c-0.266,0,-0.52,-0.105,-0.707,-0.293l-3.141,-3.141c-0.391,-0.391,-0.391,-1.023,0,-1.414s1.023,-0.391,1.414,0l2.434,2.434l4.391,-4.392c0.391,-0.391,1.023,-0.391,1.414,0s0.391,1.023,0,1.414l-5.098,5.099C14.02,15.395,13.766,15.5,13.5,15.5z" transform="matrix(1,0,0,1,781.375,642.5)" fill="#ffffff" style="cursor: pointer;"></path></g></g><g id="um-station-1306"><rect x="784.875" y="685" width="7" height="7" fill="#ff0000" style="cursor: pointer;" transform="matrix(1,0,0,1,0,0)"></rect><rect x="699.6406" y="681" width="79.234375" height="15" fill="rgba(255,255,255,0.75)" style="cursor: pointer;"></rect><text x="0" y="0" fill="#787878" style="font-size: 15px; cursor: pointer;" transform="matrix(1,0,0,1,701.6406,693)">Уральская</text><g style="opacity: 0;"><circle cx="795.375" cy="688.5" r="11" fill="#4c4c4c" style="cursor: pointer;"></circle><path d="M13.5,15.5c-0.266,0,-0.52,-0.105,-0.707,-0.293l-3.141,-3.141c-0.391,-0.391,-0.391,-1.023,0,-1.414s1.023,-0.391,1.414,0l2.434,2.434l4.391,-4.392c0.391,-0.391,1.023,-0.391,1.414,0s0.391,1.023,0,1.414l-5.098,5.099C14.02,15.395,13.766,15.5,13.5,15.5z" transform="matrix(1,0,0,1,781.375,676.5)" fill="#ffffff" style="cursor: pointer;"></path></g></g><g id="um-station-1307"><rect x="784.875" y="718" width="7" height="7" fill="#ff0000" style="cursor: pointer;" transform="matrix(1,0,0,1,0,0)"></rect><rect x="720.5781" y="714" width="58.296875" height="15" fill="rgba(255,255,255,0.75)" style="cursor: pointer;"></rect><text x="0" y="0" fill="#787878" style="font-size: 15px; cursor: pointer;" transform="matrix(1,0,0,1,722.5781,726)">Динамо</text><g style="opacity: 0;"><circle cx="795.375" cy="721.5" r="11" fill="#4c4c4c" style="cursor: pointer;"></circle><path d="M13.5,15.5c-0.266,0,-0.52,-0.105,-0.707,-0.293l-3.141,-3.141c-0.391,-0.391,-0.391,-1.023,0,-1.414s1.023,-0.391,1.414,0l2.434,2.434l4.391,-4.392c0.391,-0.391,1.023,-0.391,1.414,0s0.391,1.023,0,1.414l-5.098,5.099C14.02,15.395,13.766,15.5,13.5,15.5z" transform="matrix(1,0,0,1,781.375,709.5)" fill="#ffffff" style="cursor: pointer;"></path></g></g><g id="um-station-1308"><rect x="784.875" y="753" width="7" height="7" fill="#ff0000" style="cursor: pointer;" transform="matrix(1,0,0,1,0,0)"></rect><rect x="636.75" y="749" width="142.125" height="15" fill="rgba(255,255,255,0.75)" style="cursor: pointer;"></rect><text x="0" y="0" fill="#787878" style="font-size: 15px; cursor: pointer;" transform="matrix(1,0,0,1,638.75,761)">Площадь 1905 года</text><g style="opacity: 0;"><circle cx="795.375" cy="756.5" r="11" fill="#4c4c4c" style="cursor: pointer;"></circle><path d="M13.5,15.5c-0.266,0,-0.52,-0.105,-0.707,-0.293l-3.141,-3.141c-0.391,-0.391,-0.391,-1.023,0,-1.414s1.023,-0.391,1.414,0l2.434,2.434l4.391,-4.392c0.391,-0.391,1.023,-0.391,1.414,0s0.391,1.023,0,1.414l-5.098,5.099C14.02,15.395,13.766,15.5,13.5,15.5z" transform="matrix(1,0,0,1,781.375,744.5)" fill="#ffffff" style="cursor: pointer;"></path></g></g><g id="um-station-1309"><rect x="784.875" y="787" width="7" height="7" fill="#ff0000" style="cursor: pointer;" transform="matrix(1,0,0,1,0,0)"></rect><rect x="669.7969" y="783" width="109.078125" height="15" fill="rgba(255,255,255,0.75)" style="cursor: pointer;"></rect><text x="0" y="0" fill="#787878" style="font-size: 15px; cursor: pointer;" transform="matrix(1,0,0,1,671.7969,795)">Геологическая</text><g style="opacity: 0;"><circle cx="795.375" cy="790.5" r="11" fill="#4c4c4c" style="cursor: pointer;"></circle><path d="M13.5,15.5c-0.266,0,-0.52,-0.105,-0.707,-0.293l-3.141,-3.141c-0.391,-0.391,-0.391,-1.023,0,-1.414s1.023,-0.391,1.414,0l2.434,2.434l4.391,-4.392c0.391,-0.391,1.023,-0.391,1.414,0s0.391,1.023,0,1.414l-5.098,5.099C14.02,15.395,13.766,15.5,13.5,15.5z" transform="matrix(1,0,0,1,781.375,778.5)" fill="#ffffff" style="cursor: pointer;"></path></g></g>


<g id="um-station-1310">
	<rect x="784.875" y="820" width="7" height="7" fill="#ff0000" style="cursor: pointer;" transform="matrix(1,0,0,1,0,0)"></rect>
	<rect x="695.9063" y="816" width="82.96875" height="15" fill="rgba(255,255,255,0.75)" style="cursor: pointer;"></rect>
	<text x="-4" y="0" fill="#787878" style="font-size: 15px; cursor: pointer;" transform="matrix(1,0,0,1,697.9063,828)">Чкаловская</text>
	<g style="opacity: 0;">
		<circle cx="795.375" cy="823.5" r="11" fill="#4c4c4c" style="cursor: pointer;"></circle>
		<path d="M13.5,15.5c-0.266,0,-0.52,-0.105,-0.707,-0.293l-3.141,-3.141c-0.391,-0.391,-0.391,-1.023,0,-1.414s1.023,-0.391,1.414,0l2.434,2.434l4.391,-4.392c0.391,-0.391,1.023,-0.391,1.414,0s0.391,1.023,0,1.414l-5.098,5.099C14.02,15.395,13.766,15.5,13.5,15.5z" transform="matrix(1,0,0,1,781.375,811.5)" fill="#ffffff" style="cursor: pointer;"></path>
	</g>
</g>

<g id="um-station-1311">
	<rect x="784" y="854" width="21" height="7" fill="#ff0000" style="cursor: pointer;" transform="matrix(1,0,0,1,0,0)"></rect>
	<rect x="690.9375" y="850" width="87.9375" height="15" fill="rgba(255,255,255,0.75)" style="cursor: pointer;"></rect>
	<text x="-14" y="0" fill="#787878" style="font-size: 15px; cursor: pointer;" transform="matrix(1,0,0,1,692.9375,862)">Ботаническая</text>
	<g style="opacity: 0;">
		<circle cx="795" cy="857.5" r="11" fill="#4c4c4c" style="cursor: pointer;"></circle>
		<path d="M13.5,15.5c-0.266,0,-0.52,-0.105,-0.707,-0.293l-3.141,-3.141c-0.391,-0.391,-0.391,-1.023,0,-1.414s1.023,-0.391,1.414,0l2.434,2.434l4.391,-4.392c0.391,-0.391,1.023,-0.391,1.414,0s0.391,1.023,0,1.414l-5.098,5.099C14.02,15.395,13.766,15.5,13.5,15.5z" transform="matrix(1,0,0,1,781.375,845.5)" fill="#ffffff" style="cursor: pointer;"></path>
	</g>
</g>

<g id="um-select-line-1" style="cursor: pointer;">
	<rect x="785" y="545" width="21" height="21" rx="3" ry="3" fill="#ff0000"></rect>
	<text x="791.046875" y="561" fill="#ffffff">1</text>
</g>
</svg>