<?xml version="1.0" encoding="UTF-8"?>
<!DOCTYPE svg PUBLIC "-//W3C//DTD SVG 1.1//EN" "http://www.w3.org/Graphics/SVG/1.1/DTD/svg11.dtd">
<svg version="1.1" xmlns="http://www.w3.org/2000/svg" xmlns:xlink="http://www.w3.org/1999/xlink" x="0" y="0" width="1430" height="1528.423" viewBox="0, 0, 1430, 1528.423">
  <g id="Layer_1">
    <path d="M722.125,673.433 L587.118,673.433 C584.368,673.433 580.527,671.842 578.582,669.898 L502.114,593.425" fill-opacity="0" stroke="#007DBE" stroke-width="7" stroke-miterlimit="10"/>
    <path d="M722.125,673.433 L744.112,695.414" fill-opacity="0" stroke="#B3B3B3" stroke-width="3" stroke-miterlimit="10"/>
    <path d="M905.748,690.414 L744.112,690.414 C741.362,690.414 739.112,692.664 739.112,695.414 L739.112,880.914 C739.112,883.664 737.52,887.504 735.576,889.449 L563.605,1061.429" fill-opacity="0" stroke="#FF0000" stroke-width="7" stroke-miterlimit="10"/>
  </g>

  <g id="um-station-1280"><rect x="728.875" y="740" width="7" height="7" fill="#ff0000" style="cursor: pointer;" transform="matrix(1,0,0,1,0,0)"></rect><rect x="634.9375" y="736" width="87.9375" height="15" fill="rgba(255,255,255,0.75)" style="cursor: pointer;"></rect><text x="0" y="0" fill="#787878" style="font-size: 15px; cursor: pointer;" transform="matrix(1,0,0,1,636.9375,748)">Чкаловская</text><g style="opacity: 0;"><circle cx="739.375" cy="743.5" r="11" fill="#4c4c4c" style="cursor: pointer;"></circle><path d="M13.5,15.5c-0.266,0,-0.52,-0.105,-0.707,-0.293l-3.141,-3.141c-0.391,-0.391,-0.391,-1.023,0,-1.414s1.023,-0.391,1.414,0l2.434,2.434l4.391,-4.392c0.391,-0.391,1.023,-0.391,1.414,0s0.391,1.023,0,1.414l-5.098,5.099C14.02,15.395,13.766,15.5,13.5,15.5z" transform="matrix(1,0,0,1,725.375,731.5)" fill="#ffffff" style="cursor: pointer;"></path></g></g><g id="um-station-1282"><rect x="728.875" y="808" width="7" height="7" fill="#ff0000" style="cursor: pointer;" transform="matrix(1,0,0,1,0,0)"></rect><rect x="650.7188" y="804" width="72.15625" height="15" fill="rgba(255,255,255,0.75)" style="cursor: pointer;"></rect><text x="0" y="0" fill="#787878" style="font-size: 15px; cursor: pointer;" transform="matrix(1,0,0,1,652.7188,816)">Заречная</text><g style="opacity: 0;"><circle cx="739.375" cy="811.5" r="11" fill="#4c4c4c" style="cursor: pointer;"></circle><path d="M13.5,15.5c-0.266,0,-0.52,-0.105,-0.707,-0.293l-3.141,-3.141c-0.391,-0.391,-0.391,-1.023,0,-1.414s1.023,-0.391,1.414,0l2.434,2.434l4.391,-4.392c0.391,-0.391,1.023,-0.391,1.414,0s0.391,1.023,0,1.414l-5.098,5.099C14.02,15.395,13.766,15.5,13.5,15.5z" transform="matrix(1,0,0,1,725.375,799.5)" fill="#ffffff" style="cursor: pointer;"></path></g></g><g id="um-station-1287"><rect x="595.875" y="1016" width="7" height="7" fill="#ff0000" style="cursor: pointer;" transform="matrix(0.7071,0.7071,-0.7071,0.7071,896.4482,-125.2175)"></rect><rect x="508.3344" y="1011.989" width="80.09374999999994" height="15" fill="rgba(255,255,255,0.75)" style="cursor: pointer;"></rect><text x="0" y="0" fill="#787878" style="font-size: 15px; cursor: pointer;" transform="matrix(1,0,0,1,510.3344,1023.989)">Кировская</text><g style="opacity: 0;"><circle cx="609.8778125" cy="1019.4890125000001" r="11" fill="#4c4c4c" style="cursor: pointer;"></circle><path d="M13.5,15.5c-0.266,0,-0.52,-0.105,-0.707,-0.293l-3.141,-3.141c-0.391,-0.391,-0.391,-1.023,0,-1.414s1.023,-0.391,1.414,0l2.434,2.434l4.391,-4.392c0.391,-0.391,1.023,-0.391,1.414,0s0.391,1.023,0,1.414l-5.098,5.099C14.02,15.395,13.766,15.5,13.5,15.5z" transform="matrix(1,0,0,1,595.8778,1007.489)" fill="#ffffff" style="cursor: pointer;"></path></g></g><g id="um-station-1283"><rect x="728.875" y="842" width="7" height="7" fill="#ff0000" style="cursor: pointer;" transform="matrix(1,0,0,1,0,0)"></rect><rect x="559.625" y="838" width="163.25" height="15" fill="rgba(255,255,255,0.75)" style="cursor: pointer;"></rect><text x="0" y="0" fill="#787878" style="font-size: 15px; cursor: pointer;" transform="matrix(1,0,0,1,561.625,850)">Двигатель Революции</text><g style="opacity: 0;"><circle cx="739.375" cy="845.5" r="11" fill="#4c4c4c" style="cursor: pointer;"></circle><path d="M13.5,15.5c-0.266,0,-0.52,-0.105,-0.707,-0.293l-3.141,-3.141c-0.391,-0.391,-0.391,-1.023,0,-1.414s1.023,-0.391,1.414,0l2.434,2.434l4.391,-4.392c0.391,-0.391,1.023,-0.391,1.414,0s0.391,1.023,0,1.414l-5.098,5.099C14.02,15.395,13.766,15.5,13.5,15.5z" transform="matrix(1,0,0,1,725.375,833.5)" fill="#ffffff" style="cursor: pointer;"></path></g></g><g id="um-station-1286"><rect x="635.875" y="973" width="7" height="7" fill="#ff0000" style="cursor: pointer;" transform="matrix(0.7071,0.7071,-0.7071,0.7071,877.7584,-166.0962)"></rect><rect x="513.3651" y="968.989" width="115.0625" height="15" fill="rgba(255,255,255,0.75)" style="cursor: pointer;"></rect><text x="0" y="0" fill="#787878" style="font-size: 15px; cursor: pointer;" transform="matrix(1,0,0,1,515.3651,980.989)">Комсомольская</text><g style="opacity: 0;"><circle cx="649.8773125000001" cy="976.4890125000001" r="11" fill="#4c4c4c" style="cursor: pointer;"></circle><path d="M13.5,15.5c-0.266,0,-0.52,-0.105,-0.707,-0.293l-3.141,-3.141c-0.391,-0.391,-0.391,-1.023,0,-1.414s1.023,-0.391,1.414,0l2.434,2.434l4.391,-4.392c0.391,-0.391,1.023,-0.391,1.414,0s0.391,1.023,0,1.414l-5.098,5.099C14.02,15.395,13.766,15.5,13.5,15.5z" transform="matrix(1,0,0,1,635.8773,964.489)" fill="#ffffff" style="cursor: pointer;"></path></g></g><g id="um-station-1284"><rect x="716.375" y="893" width="7" height="7" fill="#ff0000" style="cursor: pointer;" transform="matrix(0.7071,0.7071,-0.7071,0.7071,844.7677,-246.4497)"></rect><rect x="603.8327" y="888.9891" width="105.09375" height="15" fill="rgba(255,255,255,0.75)" style="cursor: pointer;"></rect><text x="0" y="0" fill="#787878" style="font-size: 15px; cursor: pointer;" transform="matrix(1,0,0,1,605.8327,900.9891)">Пролетарская</text><g style="opacity: 0;"><circle cx="730.3761625" cy="896.4890624999999" r="11" fill="#4c4c4c" style="cursor: pointer;"></circle><path d="M13.5,15.5c-0.266,0,-0.52,-0.105,-0.707,-0.293l-3.141,-3.141c-0.391,-0.391,-0.391,-1.023,0,-1.414s1.023,-0.391,1.414,0l2.434,2.434l4.391,-4.392c0.391,-0.391,1.023,-0.391,1.414,0s0.391,1.023,0,1.414l-5.098,5.099C14.02,15.395,13.766,15.5,13.5,15.5z" transform="matrix(1,0,0,1,716.3762,884.4891)" fill="#ffffff" style="cursor: pointer;"></path></g></g><g id="um-station-1281"><rect x="728.875" y="774" width="7" height="7" fill="#ff0000" style="cursor: pointer;" transform="matrix(1,0,0,1,0,0)"></rect><rect x="642.3594" y="770" width="80.515625" height="15" fill="rgba(255,255,255,0.75)" style="cursor: pointer;"></rect><text x="0" y="0" fill="#787878" style="font-size: 15px; cursor: pointer;" transform="matrix(1,0,0,1,644.3594,782)">Ленинская</text><g style="opacity: 0;"><circle cx="739.375" cy="777.5" r="11" fill="#4c4c4c" style="cursor: pointer;"></circle><path d="M13.5,15.5c-0.266,0,-0.52,-0.105,-0.707,-0.293l-3.141,-3.141c-0.391,-0.391,-0.391,-1.023,0,-1.414s1.023,-0.391,1.414,0l2.434,2.434l4.391,-4.392c0.391,-0.391,1.023,-0.391,1.414,0s0.391,1.023,0,1.414l-5.098,5.099C14.02,15.395,13.766,15.5,13.5,15.5z" transform="matrix(1,0,0,1,725.375,765.5)" fill="#ffffff" style="cursor: pointer;"></path></g></g><g id="um-station-1285"><rect x="676.875" y="933" width="7" height="7" fill="#ff0000" style="cursor: pointer;" transform="matrix(0.7071,0.7071,-0.7071,0.7071,861.4827,-206.8033)"></rect><rect x="557.2551" y="928.989" width="112.171875" height="15" fill="rgba(255,255,255,0.75)" style="cursor: pointer;"></rect><text x="0" y="0" fill="#787878" style="font-size: 15px; cursor: pointer;" transform="matrix(1,0,0,1,559.2551,940.989)">Автозаводская</text><g style="opacity: 0;"><circle cx="690.8767125" cy="936.4890124999998" r="11" fill="#4c4c4c" style="cursor: pointer;"></circle><path d="M13.5,15.5c-0.266,0,-0.52,-0.105,-0.707,-0.293l-3.141,-3.141c-0.391,-0.391,-0.391,-1.023,0,-1.414s1.023,-0.391,1.414,0l2.434,2.434l4.391,-4.392c0.391,-0.391,1.023,-0.391,1.414,0s0.391,1.023,0,1.414l-5.098,5.099C14.02,15.395,13.766,15.5,13.5,15.5z" transform="matrix(1,0,0,1,676.8767,924.489)" fill="#ffffff" style="cursor: pointer;"></path></g></g><g id="um-station-1288"><rect x="552.875" y="1058" width="21" height="7" fill="#ff0000" style="cursor: pointer;" transform="matrix(0.7071,0.7071,-0.7071,0.7071,915.6026,-87.4601)"></rect><rect x="435.7759" y="1053.989" width="111.703125" height="15" fill="rgba(255,255,255,0.75)" style="cursor: pointer;"></rect><text x="0" y="0" fill="#787878" style="font-size: 15px; cursor: pointer;" transform="matrix(1,0,0,1,437.7759,1065.989)">Парк Культуры</text><g style="opacity: 0;"><circle cx="563.3784125000002" cy="1061.4890124999997" r="11" fill="#4c4c4c" style="cursor: pointer;"></circle><path d="M13.5,15.5c-0.266,0,-0.52,-0.105,-0.707,-0.293l-3.141,-3.141c-0.391,-0.391,-0.391,-1.023,0,-1.414s1.023,-0.391,1.414,0l2.434,2.434l4.391,-4.392c0.391,-0.391,1.023,-0.391,1.414,0s0.391,1.023,0,1.414l-5.098,5.099C14.02,15.395,13.766,15.5,13.5,15.5z" transform="matrix(1,0,0,1,549.3784,1049.489)" fill="#ffffff" style="cursor: pointer;"></path></g></g><g id="um-station-1361"><rect x="894.875" y="687" width="21" height="7" fill="#ff0000" style="cursor: pointer;" transform="matrix(0,1,-1,0,1595.875,-214.875)"></rect><rect x="915.875" y="683" width="93.1875" height="15" fill="rgba(255,255,255,0.75)" style="cursor: pointer;"></rect><text x="0" y="0" fill="#787878" style="font-size: 15px; cursor: pointer;" transform="matrix(1,0,0,1,917.875,695)">Горьковская</text><g style="opacity: 0;"><circle cx="905.375" cy="690.5" r="11" fill="#4c4c4c" style="cursor: pointer;"></circle><path d="M13.5,15.5c-0.266,0,-0.52,-0.105,-0.707,-0.293l-3.141,-3.141c-0.391,-0.391,-0.391,-1.023,0,-1.414s1.023,-0.391,1.414,0l2.434,2.434l4.391,-4.392c0.391,-0.391,1.023,-0.391,1.414,0s0.391,1.023,0,1.414l-5.098,5.099C14.02,15.395,13.766,15.5,13.5,15.5z" transform="matrix(1,0,0,1,891.375,678.5)" fill="#ffffff" style="cursor: pointer;"></path></g></g><g id="um-station-1279"><circle cx="739.3854064941406" cy="692.5" r="7" fill="#ffffff" stroke="#ff0000" style="stroke-width: 5px; cursor: pointer;" transform="matrix(1,0,0,1,0,0)"></circle><rect x="633.8281" y="685" width="89.546875" height="15" fill="rgba(255,255,255,0.75)" style="cursor: pointer;"></rect><text x="0" y="0" fill="#787878" style="font-size: 15px; cursor: pointer;" transform="matrix(1,0,0,1,635.8281,697)">Московская</text><g style="opacity: 0;"><circle cx="739.3854064941406" cy="692.5" r="11" fill="#4c4c4c" style="cursor: pointer;"></circle><path d="M13.5,15.5c-0.266,0,-0.52,-0.105,-0.707,-0.293l-3.141,-3.141c-0.391,-0.391,-0.391,-1.023,0,-1.414s1.023,-0.391,1.414,0l2.434,2.434l4.391,-4.392c0.391,-0.391,1.023,-0.391,1.414,0s0.391,1.023,0,1.414l-5.098,5.099C14.02,15.395,13.766,15.5,13.5,15.5z" transform="matrix(1,0,0,1,725.3854,680.5)" fill="#ffffff" style="cursor: pointer;"></path></g></g><g id="um-station-1291"><rect x="647" y="664" width="7" height="7" fill="#117ebc" style="cursor: pointer;" transform="matrix(1,0,0,1,0,0)"></rect><rect x="602.1094" y="647" width="96.78125" height="15" fill="rgba(255,255,255,0.75)" style="cursor: pointer;"></rect><text x="0" y="0" fill="#787878" style="font-size: 15px; cursor: pointer;" transform="matrix(1,0,0,1,604.1094,659)">Канавинская</text><g style="opacity: 0;"><circle cx="650.5" cy="674.5" r="11" fill="#4c4c4c" style="cursor: pointer;"></circle><path d="M13.5,15.5c-0.266,0,-0.52,-0.105,-0.707,-0.293l-3.141,-3.141c-0.391,-0.391,-0.391,-1.023,0,-1.414s1.023,-0.391,1.414,0l2.434,2.434l4.391,-4.392c0.391,-0.391,1.023,-0.391,1.414,0s0.391,1.023,0,1.414l-5.098,5.099C14.02,15.395,13.766,15.5,13.5,15.5z" transform="matrix(1,0,0,1,636.5,662.5)" fill="#ffffff" style="cursor: pointer;"></path></g></g><g id="um-station-1290"><rect x="542.375" y="625.5" width="7" height="7" fill="#117ebc" style="cursor: pointer;" transform="matrix(0.7071,0.7071,-0.7071,0.7071,604.6533,-201.7621)"></rect><rect x="553.8253" y="621.492" width="103.671875" height="15" fill="rgba(255,255,255,0.75)" style="cursor: pointer;"></rect><text x="0" y="0" fill="#787878" style="font-size: 15px; cursor: pointer;" transform="matrix(1,0,0,1,555.8253,633.492)">Бурнаковская</text><g style="opacity: 0;"><circle cx="535.3756124999999" cy="628.9920124999999" r="11" fill="#4c4c4c" style="cursor: pointer;"></circle><path d="M13.5,15.5c-0.266,0,-0.52,-0.105,-0.707,-0.293l-3.141,-3.141c-0.391,-0.391,-0.391,-1.023,0,-1.414s1.023,-0.391,1.414,0l2.434,2.434l4.391,-4.392c0.391,-0.391,1.023,-0.391,1.414,0s0.391,1.023,0,1.414l-5.098,5.099C14.02,15.395,13.766,15.5,13.5,15.5z" transform="matrix(1,0,0,1,521.3756,616.992)" fill="#ffffff" style="cursor: pointer;"></path></g></g><g id="um-station-1289"><rect x="491.375" y="589.5" width="21" height="7" fill="#117ebc" style="cursor: pointer;" transform="matrix(0.7071,-0.7071,0.7071,0.7071,-272.3185,528.5649)"></rect><rect x="390.9682" y="585.4994" width="95" height="15" fill="rgba(255,255,255,0.75)" style="cursor: pointer;"></rect><text x="0" y="0" fill="#787878" style="font-size: 15px; cursor: pointer;" transform="matrix(1,0,0,1,392.9682,597.4994)">Буревестник</text><g style="opacity: 0;"><circle cx="501.8676125" cy="592.9993875" r="11" fill="#4c4c4c" style="cursor: pointer;"></circle><path d="M13.5,15.5c-0.266,0,-0.52,-0.105,-0.707,-0.293l-3.141,-3.141c-0.391,-0.391,-0.391,-1.023,0,-1.414s1.023,-0.391,1.414,0l2.434,2.434l4.391,-4.392c0.391,-0.391,1.023,-0.391,1.414,0s0.391,1.023,0,1.414l-5.098,5.099C14.02,15.395,13.766,15.5,13.5,15.5z" transform="matrix(1,0,0,1,487.8676,580.9994)" fill="#ffffff" style="cursor: pointer;"></path></g></g><g id="um-station-1292"><circle cx="722.3854064941406" cy="673.5" r="7" fill="#ffffff" stroke="#117ebc" style="stroke-width: 5px; cursor: pointer;" transform="matrix(1,0,0,1,0,0)"></circle><rect x="735.3958" y="670.5" width="4" height="0" fill="rgba(255,255,255,0.75)" style="cursor: pointer;"></rect><text x="0" y="0" fill="#787878" style="font-size: 15px; cursor: pointer;" transform="matrix(1,0,0,1,737.3958,670.5)"></text><g style="opacity: 0;"><circle cx="722.3854064941406" cy="673.5" r="11" fill="#4c4c4c" style="cursor: pointer;"></circle><path d="M13.5,15.5c-0.266,0,-0.52,-0.105,-0.707,-0.293l-3.141,-3.141c-0.391,-0.391,-0.391,-1.023,0,-1.414s1.023,-0.391,1.414,0l2.434,2.434l4.391,-4.392c0.391,-0.391,1.023,-0.391,1.414,0s0.391,1.023,0,1.414l-5.098,5.099C14.02,15.395,13.766,15.5,13.5,15.5z" transform="matrix(1,0,0,1,708.3854,661.5)" fill="#ffffff" style="cursor: pointer;"></path></g></g><g id="um-select-line-1" style="cursor: pointer;"><rect x="895" y="645" width="21" height="21" rx="3" ry="3" fill="#ff0000"></rect><text x="901.046875" y="661" fill="#ffffff">1</text></g><g id="um-select-line-2" style="cursor: pointer;"><rect x="491" y="550" width="21" height="21" rx="3" ry="3" fill="#117ebc"></rect><text x="497.046875" y="566" fill="#ffffff">2</text></g>
</svg>