<?xml version="1.0" encoding="UTF-8"?>
<!DOCTYPE svg PUBLIC "-//W3C//DTD SVG 1.1//EN" "http://www.w3.org/Graphics/SVG/1.1/DTD/svg11.dtd">
<svg version="1.1" xmlns="http://www.w3.org/2000/svg" xmlns:xlink="http://www.w3.org/1999/xlink" x="0" y="0" width="1430" height="1528.423" viewBox="0, 0, 1430, 1528.423">
  <g id="Layer_1">
    <path d="M844.829,802.161 L844.829,673.729 C844.829,657.229 831.329,643.729 814.829,643.729 L552.116,643.729" fill-opacity="0" stroke="#32B446" stroke-width="7" stroke-miterlimit="10"/>
    <path d="M692.124,643.432 L739.112,690.414" fill-opacity="0" stroke="#B3B3B3" stroke-width="3" stroke-miterlimit="10"/>
    <path d="M739.112,570.409 L739.112,870.152" fill-opacity="0" stroke="#FF0000" stroke-width="7" stroke-miterlimit="10"/>
  </g>

  <g id="um-station-1322"><rect x="741.875" y="601" width="7" height="7" fill="#ff0000" style="cursor: pointer;" transform="matrix(1,0,0,1,0,0)"></rect><rect x="751.875" y="597" width="92.390625" height="15" fill="rgba(255,255,255,0.75)" style="cursor: pointer;"></rect><text x="0" y="0" fill="#787878" style="font-size: 15px; cursor: pointer;" transform="matrix(1,0,0,1,753.875,609)">Гагаринская</text><g style="opacity: 0;"><circle cx="738.375" cy="604.5" r="11" fill="#4c4c4c" style="cursor: pointer;"></circle><path d="M13.5,15.5c-0.266,0,-0.52,-0.105,-0.707,-0.293l-3.141,-3.141c-0.391,-0.391,-0.391,-1.023,0,-1.414s1.023,-0.391,1.414,0l2.434,2.434l4.391,-4.392c0.391,-0.391,1.023,-0.391,1.414,0s0.391,1.023,0,1.414l-5.098,5.099C14.02,15.395,13.766,15.5,13.5,15.5z" transform="matrix(1,0,0,1,724.375,592.5)" fill="#ffffff" style="cursor: pointer;"></path></g></g><g id="um-station-1324"><rect x="728.875" y="731" width="7" height="7" fill="#ff0000" style="cursor: pointer;" transform="matrix(1,0,0,1,0,0)"></rect><rect x="597.6875" y="727" width="125.1875" height="15" fill="rgba(255,255,255,0.75)" style="cursor: pointer;"></rect><text x="0" y="0" fill="#787878" style="font-size: 15px; cursor: pointer;" transform="matrix(1,0,0,1,599.6875,739)">Площадь Ленина</text><g style="opacity: 0;"><circle cx="739.375" cy="734.5" r="11" fill="#4c4c4c" style="cursor: pointer;"></circle><path d="M13.5,15.5c-0.266,0,-0.52,-0.105,-0.707,-0.293l-3.141,-3.141c-0.391,-0.391,-0.391,-1.023,0,-1.414s1.023,-0.391,1.414,0l2.434,2.434l4.391,-4.392c0.391,-0.391,1.023,-0.391,1.414,0s0.391,1.023,0,1.414l-5.098,5.099C14.02,15.395,13.766,15.5,13.5,15.5z" transform="matrix(1,0,0,1,725.375,722.5)" fill="#ffffff" style="cursor: pointer;"></path></g></g><g id="um-station-1325"><rect x="728.875" y="765" width="7" height="7" fill="#ff0000" style="cursor: pointer;" transform="matrix(1,0,0,1,0,0)"></rect><rect x="626.5" y="761" width="96.375" height="15" fill="rgba(255,255,255,0.75)" style="cursor: pointer;"></rect><text x="0" y="0" fill="#787878" style="font-size: 15px; cursor: pointer;" transform="matrix(1,0,0,1,628.5,773)">Октябрьская</text><g style="opacity: 0;"><circle cx="739.375" cy="768.5" r="11" fill="#4c4c4c" style="cursor: pointer;"></circle><path d="M13.5,15.5c-0.266,0,-0.52,-0.105,-0.707,-0.293l-3.141,-3.141c-0.391,-0.391,-0.391,-1.023,0,-1.414s1.023,-0.391,1.414,0l2.434,2.434l4.391,-4.392c0.391,-0.391,1.023,-0.391,1.414,0s0.391,1.023,0,1.414l-5.098,5.099C14.02,15.395,13.766,15.5,13.5,15.5z" transform="matrix(1,0,0,1,725.375,756.5)" fill="#ffffff" style="cursor: pointer;"></path></g></g><g id="um-station-1326"><rect x="728.875" y="799" width="7" height="7" fill="#ff0000" style="cursor: pointer;" transform="matrix(1,0,0,1,0,0)"></rect><rect x="613.6094" y="795" width="109.265625" height="15" fill="rgba(255,255,255,0.75)" style="cursor: pointer;"></rect><text x="0" y="0" fill="#787878" style="font-size: 15px; cursor: pointer;" transform="matrix(1,0,0,1,615.6094,807)">Речной вокзал</text><g style="opacity: 0;"><circle cx="739.375" cy="802.5" r="11" fill="#4c4c4c" style="cursor: pointer;"></circle><path d="M13.5,15.5c-0.266,0,-0.52,-0.105,-0.707,-0.293l-3.141,-3.141c-0.391,-0.391,-0.391,-1.023,0,-1.414s1.023,-0.391,1.414,0l2.434,2.434l4.391,-4.392c0.391,-0.391,1.023,-0.391,1.414,0s0.391,1.023,0,1.414l-5.098,5.099C14.02,15.395,13.766,15.5,13.5,15.5z" transform="matrix(1,0,0,1,725.375,790.5)" fill="#ffffff" style="cursor: pointer;"></path></g></g><g id="um-station-1327"><rect x="728.875" y="833" width="7" height="7" fill="#ff0000" style="cursor: pointer;" transform="matrix(1,0,0,1,0,0)"></rect><rect x="618.4219" y="829" width="104.453125" height="15" fill="rgba(255,255,255,0.75)" style="cursor: pointer;"></rect><text x="0" y="0" fill="#787878" style="font-size: 15px; cursor: pointer;" transform="matrix(1,0,0,1,620.4219,841)">Студенческая</text><g style="opacity: 0;"><circle cx="739.375" cy="836.5" r="11" fill="#4c4c4c" style="cursor: pointer;"></circle><path d="M13.5,15.5c-0.266,0,-0.52,-0.105,-0.707,-0.293l-3.141,-3.141c-0.391,-0.391,-0.391,-1.023,0,-1.414s1.023,-0.391,1.414,0l2.434,2.434l4.391,-4.392c0.391,-0.391,1.023,-0.391,1.414,0s0.391,1.023,0,1.414l-5.098,5.099C14.02,15.395,13.766,15.5,13.5,15.5z" transform="matrix(1,0,0,1,725.375,824.5)" fill="#ffffff" style="cursor: pointer;"></path></g></g><g id="um-station-1328"><rect x="727.875" y="867" width="21" height="7" fill="#ff0000" style="cursor: pointer;" transform="matrix(1,0,0,1,0,0)"></rect><rect x="595.8594" y="863" width="126.015625" height="15" fill="rgba(255,255,255,0.75)" style="cursor: pointer;"></rect><text x="0" y="0" fill="#787878" style="font-size: 15px; cursor: pointer;" transform="matrix(1,0,0,1,597.8594,875)">Площадь Маркса</text><g style="opacity: 0;"><circle cx="738.375" cy="870.5" r="11" fill="#4c4c4c" style="cursor: pointer;"></circle><path d="M13.5,15.5c-0.266,0,-0.52,-0.105,-0.707,-0.293l-3.141,-3.141c-0.391,-0.391,-0.391,-1.023,0,-1.414s1.023,-0.391,1.414,0l2.434,2.434l4.391,-4.392c0.391,-0.391,1.023,-0.391,1.414,0s0.391,1.023,0,1.414l-5.098,5.099C14.02,15.395,13.766,15.5,13.5,15.5z" transform="matrix(1,0,0,1,724.375,858.5)" fill="#ffffff" style="cursor: pointer;"></path></g></g><g id="um-station-1321"><rect x="728.875" y="567" width="21" height="7" fill="#ff0000" style="cursor: pointer;" transform="matrix(1,0,0,1,0,0)"></rect><rect x="618.5313" y="563" width="104.34375" height="15" fill="rgba(255,255,255,0.75)" style="cursor: pointer;"></rect><text x="0" y="0" fill="#787878" style="font-size: 15px; cursor: pointer;" transform="matrix(1,0,0,1,620.5313,575)">Заельцовская</text><g style="opacity: 0;"><circle cx="739.375" cy="570.5" r="11" fill="#4c4c4c" style="cursor: pointer;"></circle><path d="M13.5,15.5c-0.266,0,-0.52,-0.105,-0.707,-0.293l-3.141,-3.141c-0.391,-0.391,-0.391,-1.023,0,-1.414s1.023,-0.391,1.414,0l2.434,2.434l4.391,-4.392c0.391,-0.391,1.023,-0.391,1.414,0s0.391,1.023,0,1.414l-5.098,5.099C14.02,15.395,13.766,15.5,13.5,15.5z" transform="matrix(1,0,0,1,725.375,558.5)" fill="#ffffff" style="cursor: pointer;"></path></g></g><g id="um-station-1333"><rect x="833.875" y="799" width="21" height="7" fill="#39b24c" style="cursor: pointer;" transform="matrix(1,0,0,1,0,0)"></rect><rect x="857.875" y="795" width="103.828125" height="15" fill="rgba(255,255,255,0.75)" style="cursor: pointer;"></rect><text x="0" y="0" fill="#787878" style="font-size: 15px; cursor: pointer;" transform="matrix(1,0,0,1,859.875,807)">Золотая Нива</text><g style="opacity: 0;"><circle cx="844.375" cy="802.5" r="11" fill="#4c4c4c" style="cursor: pointer;"></circle><path d="M13.5,15.5c-0.266,0,-0.52,-0.105,-0.707,-0.293l-3.141,-3.141c-0.391,-0.391,-0.391,-1.023,0,-1.414s1.023,-0.391,1.414,0l2.434,2.434l4.391,-4.392c0.391,-0.391,1.023,-0.391,1.414,0s0.391,1.023,0,1.414l-5.098,5.099C14.02,15.395,13.766,15.5,13.5,15.5z" transform="matrix(1,0,0,1,830.375,790.5)" fill="#ffffff" style="cursor: pointer;"></path></g></g><g id="um-station-1329"><rect x="540.875" y="640" width="21" height="7" fill="#39b24c" style="cursor: pointer;" transform="matrix(0,1,-1,0,1194.875,92.125)"></rect><rect x="304.7344" y="636" width="237.14062500000006" height="15" fill="rgba(255,255,255,0.75)" style="cursor: pointer;"></rect><text x="-10" y="0" fill="#787878" style="font-size: 15px; cursor: pointer;" transform="matrix(1,0,0,1,306.7344,648)">Площадь Гарина-Михайловского</text><g style="opacity: 0;"><circle cx="551.375" cy="643.5" r="11" fill="#4c4c4c" style="cursor: pointer;"></circle><path d="M13.5,15.5c-0.266,0,-0.52,-0.105,-0.707,-0.293l-3.141,-3.141c-0.391,-0.391,-0.391,-1.023,0,-1.414s1.023,-0.391,1.414,0l2.434,2.434l4.391,-4.392c0.391,-0.391,1.023,-0.391,1.414,0s0.391,1.023,0,1.414l-5.098,5.099C14.02,15.395,13.766,15.5,13.5,15.5z" transform="matrix(1,0,0,1,537.375,631.5)" fill="#ffffff" style="cursor: pointer;"></path></g></g><g id="um-station-1331"><rect x="847.875" y="731" width="7" height="7" fill="#39b24c" style="cursor: pointer;" transform="matrix(1,0,0,1,0,0)"></rect><rect x="857.875" y="727" width="166.203125" height="15" fill="rgba(255,255,255,0.75)" style="cursor: pointer;"></rect><text x="0" y="0" fill="#787878" style="font-size: 15px; cursor: pointer;" transform="matrix(1,0,0,1,859.875,739)">Маршала Покрышкина</text><g style="opacity: 0;"><circle cx="844.375" cy="734.5" r="11" fill="#4c4c4c" style="cursor: pointer;"></circle><path d="M13.5,15.5c-0.266,0,-0.52,-0.105,-0.707,-0.293l-3.141,-3.141c-0.391,-0.391,-0.391,-1.023,0,-1.414s1.023,-0.391,1.414,0l2.434,2.434l4.391,-4.392c0.391,-0.391,1.023,-0.391,1.414,0s0.391,1.023,0,1.414l-5.098,5.099C14.02,15.395,13.766,15.5,13.5,15.5z" transform="matrix(1,0,0,1,830.375,722.5)" fill="#ffffff" style="cursor: pointer;"></path></g></g><g id="um-station-1332"><rect x="847.875" y="765" width="7" height="7" fill="#39b24c" style="cursor: pointer;" transform="matrix(1,0,0,1,0,0)"></rect><rect x="857.875" y="761" width="122.484375" height="15" fill="rgba(255,255,255,0.75)" style="cursor: pointer;"></rect><text x="0" y="0" fill="#787878" style="font-size: 15px; cursor: pointer;" transform="matrix(1,0,0,1,859.875,773)">Березовая Роща</text><g style="opacity: 0;"><circle cx="844.375" cy="768.5" r="11" fill="#4c4c4c" style="cursor: pointer;"></circle><path d="M13.5,15.5c-0.266,0,-0.52,-0.105,-0.707,-0.293l-3.141,-3.141c-0.391,-0.391,-0.391,-1.023,0,-1.414s1.023,-0.391,1.414,0l2.434,2.434l4.391,-4.392c0.391,-0.391,1.023,-0.391,1.414,0s0.391,1.023,0,1.414l-5.098,5.099C14.02,15.395,13.766,15.5,13.5,15.5z" transform="matrix(1,0,0,1,830.375,756.5)" fill="#ffffff" style="cursor: pointer;"></path></g></g><g id="um-station-1323"><circle cx="739.3854064941406" cy="690" r="7" fill="#ffffff" stroke="#ff0000" style="stroke-width: 5px; cursor: pointer;" transform="matrix(1,0,0,1,0,0)"></circle><rect x="591.1562" y="682.5" width="135.21875" height="15" fill="rgba(255,255,255,0.75)" style="cursor: pointer;"></rect><text x="0" y="0" fill="#787878" style="font-size: 15px; cursor: pointer;" transform="matrix(1,0,0,1,593.1562,694.5)">Красный проспект</text><g style="opacity: 0;"><circle cx="739.3854064941406" cy="690" r="11" fill="#4c4c4c" style="cursor: pointer;"></circle><path d="M13.5,15.5c-0.266,0,-0.52,-0.105,-0.707,-0.293l-3.141,-3.141c-0.391,-0.391,-0.391,-1.023,0,-1.414s1.023,-0.391,1.414,0l2.434,2.434l4.391,-4.392c0.391,-0.391,1.023,-0.391,1.414,0s0.391,1.023,0,1.414l-5.098,5.099C14.02,15.395,13.766,15.5,13.5,15.5z" transform="matrix(1,0,0,1,725.3854,678)" fill="#ffffff" style="cursor: pointer;"></path></g></g><g id="um-station-1330"><circle cx="691.3854064941406" cy="644" r="7" fill="#ffffff" stroke="#39b24c" style="stroke-width: 5px; cursor: pointer;" transform="matrix(1,0,0,1,0,0)"></circle><rect x="650.651" y="614" width="81.46875" height="15" fill="rgba(255,255,255,0.75)" style="cursor: pointer;"></rect><text x="0" y="0" fill="#787878" style="font-size: 15px; cursor: pointer;" transform="matrix(1,0,0,1,652.651,626)">Сибирская</text><g style="opacity: 0;"><circle cx="691.3854064941406" cy="644" r="11" fill="#4c4c4c" style="cursor: pointer;"></circle><path d="M13.5,15.5c-0.266,0,-0.52,-0.105,-0.707,-0.293l-3.141,-3.141c-0.391,-0.391,-0.391,-1.023,0,-1.414s1.023,-0.391,1.414,0l2.434,2.434l4.391,-4.392c0.391,-0.391,1.023,-0.391,1.414,0s0.391,1.023,0,1.414l-5.098,5.099C14.02,15.395,13.766,15.5,13.5,15.5z" transform="matrix(1,0,0,1,677.3854,632)" fill="#ffffff" style="cursor: pointer;"></path></g></g><g id="um-select-line-1" style="cursor: pointer;"><rect x="728" y="528" width="21" height="21" rx="3" ry="3" fill="#ff0000"></rect><text x="734.046875" y="544" fill="#ffffff">1</text></g><g id="um-select-line-3" style="cursor: pointer;"><rect x="834" y="825" width="21" height="21" rx="3" ry="3" fill="#39b24c"></rect><text x="840.046875" y="841" fill="#ffffff">2</text></g>
</svg>
