<?xml version="1.0" encoding="UTF-8"?>
<!DOCTYPE svg PUBLIC "-//W3C//DTD SVG 1.1//EN" "http://www.w3.org/Graphics/SVG/1.1/DTD/svg11.dtd">
<svg version="1.1" xmlns="http://www.w3.org/2000/svg" xmlns:xlink="http://www.w3.org/1999/xlink" x="0" y="0" width="1430" height="1528" viewBox="0, 0, 1430, 1528">
  <g id="Layer_1">
    <path d="M795,586 L795,892" fill-opacity="0" stroke="#FF0000" stroke-width="6" stroke-miterlimit="10"/>
  </g>

<g id="um-station-1312"><rect x="784.875" y="616" width="7" height="7" fill="#ff0000" style="cursor: pointer;" transform="matrix(1,0,0,1,0,0)"></rect><rect x="691.5781" y="612" width="87.296875" height="15" fill="rgba(255,255,255,0.75)" style="cursor: pointer;"></rect><text x="0" y="0" fill="#787878" style="font-size: 15px; cursor: pointer;" transform="matrix(1,0,0,1,693.5781,624)">Российская</text><g style="opacity: 0;"><circle cx="795.375" cy="619.5" r="11" fill="#4c4c4c" style="cursor: pointer;"></circle><path d="M13.5,15.5c-0.266,0,-0.52,-0.105,-0.707,-0.293l-3.141,-3.141c-0.391,-0.391,-0.391,-1.023,0,-1.414s1.023,-0.391,1.414,0l2.434,2.434l4.391,-4.392c0.391,-0.391,1.023,-0.391,1.414,0s0.391,1.023,0,1.414l-5.098,5.099C14.02,15.395,13.766,15.5,13.5,15.5z" transform="matrix(1,0,0,1,781.375,607.5)" fill="#ffffff" style="cursor: pointer;"></path></g></g><g id="um-station-1314"><rect x="784.875" y="685" width="7" height="7" fill="#ff0000" style="cursor: pointer;" transform="matrix(1,0,0,1,0,0)"></rect><rect x="686.4844" y="681" width="92.390625" height="15" fill="rgba(255,255,255,0.75)" style="cursor: pointer;"></rect><text x="0" y="0" fill="#787878" style="font-size: 15px; cursor: pointer;" transform="matrix(1,0,0,1,688.4844,693)">Гагаринская</text><g style="opacity: 0;"><circle cx="795.375" cy="688.5" r="11" fill="#4c4c4c" style="cursor: pointer;"></circle><path d="M13.5,15.5c-0.266,0,-0.52,-0.105,-0.707,-0.293l-3.141,-3.141c-0.391,-0.391,-0.391,-1.023,0,-1.414s1.023,-0.391,1.414,0l2.434,2.434l4.391,-4.392c0.391,-0.391,1.023,-0.391,1.414,0s0.391,1.023,0,1.414l-5.098,5.099C14.02,15.395,13.766,15.5,13.5,15.5z" transform="matrix(1,0,0,1,781.375,676.5)" fill="#ffffff" style="cursor: pointer;"></path></g></g><g id="um-station-1315"><rect x="784.875" y="719" width="7" height="7" fill="#ff0000" style="cursor: pointer;" transform="matrix(1,0,0,1,0,0)"></rect><rect x="689.4844" y="715" width="89.390625" height="15" fill="rgba(255,255,255,0.75)" style="cursor: pointer;"></rect><text x="0" y="0" fill="#787878" style="font-size: 15px; cursor: pointer;" transform="matrix(1,0,0,1,691.4844,727)">Спортивная</text><g style="opacity: 0;"><circle cx="795.375" cy="722.5" r="11" fill="#4c4c4c" style="cursor: pointer;"></circle><path d="M13.5,15.5c-0.266,0,-0.52,-0.105,-0.707,-0.293l-3.141,-3.141c-0.391,-0.391,-0.391,-1.023,0,-1.414s1.023,-0.391,1.414,0l2.434,2.434l4.391,-4.392c0.391,-0.391,1.023,-0.391,1.414,0s0.391,1.023,0,1.414l-5.098,5.099C14.02,15.395,13.766,15.5,13.5,15.5z" transform="matrix(1,0,0,1,781.375,710.5)" fill="#ffffff" style="cursor: pointer;"></path></g></g><g id="um-station-1316"><rect x="784.875" y="753" width="7" height="7" fill="#ff0000" style="cursor: pointer;" transform="matrix(1,0,0,1,0,0)"></rect><rect x="699.2031" y="749" width="79.671875" height="15" fill="rgba(255,255,255,0.75)" style="cursor: pointer;"></rect><text x="0" y="0" fill="#787878" style="font-size: 15px; cursor: pointer;" transform="matrix(1,0,0,1,701.2031,761)">Советская</text><g style="opacity: 0;"><circle cx="795.375" cy="756.5" r="11" fill="#4c4c4c" style="cursor: pointer;"></circle><path d="M13.5,15.5c-0.266,0,-0.52,-0.105,-0.707,-0.293l-3.141,-3.141c-0.391,-0.391,-0.391,-1.023,0,-1.414s1.023,-0.391,1.414,0l2.434,2.434l4.391,-4.392c0.391,-0.391,1.023,-0.391,1.414,0s0.391,1.023,0,1.414l-5.098,5.099C14.02,15.395,13.766,15.5,13.5,15.5z" transform="matrix(1,0,0,1,781.375,744.5)" fill="#ffffff" style="cursor: pointer;"></path></g></g><g id="um-station-1319"><rect x="784.875" y="855" width="7" height="7" fill="#ff0000" style="cursor: pointer;" transform="matrix(1,0,0,1,0,0)"></rect><rect x="698.7813" y="851" width="80.09375" height="15" fill="rgba(255,255,255,0.75)" style="cursor: pointer;"></rect><text x="0" y="0" fill="#787878" style="font-size: 15px; cursor: pointer;" transform="matrix(1,0,0,1,700.7813,863)">Кировская</text><g style="opacity: 0;"><circle cx="795.375" cy="858.5" r="11" fill="#4c4c4c" style="cursor: pointer;"></circle><path d="M13.5,15.5c-0.266,0,-0.52,-0.105,-0.707,-0.293l-3.141,-3.141c-0.391,-0.391,-0.391,-1.023,0,-1.414s1.023,-0.391,1.414,0l2.434,2.434l4.391,-4.392c0.391,-0.391,1.023,-0.391,1.414,0s0.391,1.023,0,1.414l-5.098,5.099C14.02,15.395,13.766,15.5,13.5,15.5z" transform="matrix(1,0,0,1,781.375,846.5)" fill="#ffffff" style="cursor: pointer;"></path></g></g><g id="um-station-1317"><rect x="784.875" y="787" width="7" height="7" fill="#ff0000" style="cursor: pointer;" transform="matrix(1,0,0,1,0,0)"></rect><rect x="721.5781" y="783" width="57.296875" height="15" fill="rgba(255,255,255,0.75)" style="cursor: pointer;"></rect><text x="0" y="0" fill="#787878" style="font-size: 15px; cursor: pointer;" transform="matrix(1,0,0,1,723.5781,795)">Победа</text><g style="opacity: 0;"><circle cx="795.375" cy="790.5" r="11" fill="#4c4c4c" style="cursor: pointer;"></circle><path d="M13.5,15.5c-0.266,0,-0.52,-0.105,-0.707,-0.293l-3.141,-3.141c-0.391,-0.391,-0.391,-1.023,0,-1.414s1.023,-0.391,1.414,0l2.434,2.434l4.391,-4.392c0.391,-0.391,1.023,-0.391,1.414,0s0.391,1.023,0,1.414l-5.098,5.099C14.02,15.395,13.766,15.5,13.5,15.5z" transform="matrix(1,0,0,1,781.375,778.5)" fill="#ffffff" style="cursor: pointer;"></path></g></g><g id="um-station-1313"><rect x="784.875" y="651" width="7" height="7" fill="#ff0000" style="cursor: pointer;" transform="matrix(1,0,0,1,0,0)"></rect><rect x="689.3281" y="647" width="89.546875" height="15" fill="rgba(255,255,255,0.75)" style="cursor: pointer;"></rect><text x="0" y="0" fill="#787878" style="font-size: 15px; cursor: pointer;" transform="matrix(1,0,0,1,691.3281,659)">Московская</text><g style="opacity: 0;"><circle cx="795.375" cy="654.5" r="11" fill="#4c4c4c" style="cursor: pointer;"></circle><path d="M13.5,15.5c-0.266,0,-0.52,-0.105,-0.707,-0.293l-3.141,-3.141c-0.391,-0.391,-0.391,-1.023,0,-1.414s1.023,-0.391,1.414,0l2.434,2.434l4.391,-4.392c0.391,-0.391,1.023,-0.391,1.414,0s0.391,1.023,0,1.414l-5.098,5.099C14.02,15.395,13.766,15.5,13.5,15.5z" transform="matrix(1,0,0,1,781.375,642.5)" fill="#ffffff" style="cursor: pointer;"></path></g></g><g id="um-station-1318"><rect x="784.875" y="821" width="7" height="7" fill="#ff0000" style="cursor: pointer;" transform="matrix(1,0,0,1,0,0)"></rect><rect x="695" y="817" width="83.875" height="15" fill="rgba(255,255,255,0.75)" style="cursor: pointer;"></rect><text x="0" y="0" fill="#787878" style="font-size: 15px; cursor: pointer;" transform="matrix(1,0,0,1,697,829)">Безымянка </text><g style="opacity: 0;"><circle cx="795.375" cy="824.5" r="11" fill="#4c4c4c" style="cursor: pointer;"></circle><path d="M13.5,15.5c-0.266,0,-0.52,-0.105,-0.707,-0.293l-3.141,-3.141c-0.391,-0.391,-0.391,-1.023,0,-1.414s1.023,-0.391,1.414,0l2.434,2.434l4.391,-4.392c0.391,-0.391,1.023,-0.391,1.414,0s0.391,1.023,0,1.414l-5.098,5.099C14.02,15.395,13.766,15.5,13.5,15.5z" transform="matrix(1,0,0,1,781.375,812.5)" fill="#ffffff" style="cursor: pointer;"></path></g></g><g id="um-station-1320"><rect x="783.875" y="888" width="21" height="7" fill="#ff0000" style="cursor: pointer;" transform="matrix(1,0,0,1,0,0)"></rect><rect x="693.8125" y="884" width="84.0625" height="15" fill="rgba(255,255,255,0.75)" style="cursor: pointer;"></rect><text x="0" y="0" fill="#787878" style="font-size: 15px; cursor: pointer;" transform="matrix(1,0,0,1,695.8125,896)">Юнгородок</text><g style="opacity: 0;"><circle cx="794.375" cy="891.5" r="11" fill="#4c4c4c" style="cursor: pointer;"></circle><path d="M13.5,15.5c-0.266,0,-0.52,-0.105,-0.707,-0.293l-3.141,-3.141c-0.391,-0.391,-0.391,-1.023,0,-1.414s1.023,-0.391,1.414,0l2.434,2.434l4.391,-4.392c0.391,-0.391,1.023,-0.391,1.414,0s0.391,1.023,0,1.414l-5.098,5.099C14.02,15.395,13.766,15.5,13.5,15.5z" transform="matrix(1,0,0,1,780.375,879.5)" fill="#ffffff" style="cursor: pointer;"></path></g></g><g id="um-station-1360"><rect x="784.875" y="583" width="21" height="7" fill="#ff0000" style="cursor: pointer;" transform="matrix(1,0,0,1,0,0)"></rect><rect x="689.875" y="579" width="89" height="15" fill="rgba(255,255,255,0.75)" style="cursor: pointer;"></rect><text x="0" y="0" fill="#787878" style="font-size: 15px; cursor: pointer;" transform="matrix(1,0,0,1,691.875,591)">Алабинская</text><g style="opacity: 0;"><circle cx="795.375" cy="586.5" r="11" fill="#4c4c4c" style="cursor: pointer;"></circle><path d="M13.5,15.5c-0.266,0,-0.52,-0.105,-0.707,-0.293l-3.141,-3.141c-0.391,-0.391,-0.391,-1.023,0,-1.414s1.023,-0.391,1.414,0l2.434,2.434l4.391,-4.392c0.391,-0.391,1.023,-0.391,1.414,0s0.391,1.023,0,1.414l-5.098,5.099C14.02,15.395,13.766,15.5,13.5,15.5z" transform="matrix(1,0,0,1,781.375,574.5)" fill="#ffffff" style="cursor: pointer;"></path></g></g><g id="um-select-line-1" style="cursor: pointer;"><rect x="785" y="545" width="21" height="21" rx="3" ry="3" fill="#ff0000"></rect><text x="791.046875" y="561" fill="#ffffff">1</text></g>
</svg>
