<?xml version="1.0" encoding="UTF-8"?>
<!DOCTYPE svg PUBLIC "-//W3C//DTD SVG 1.1//EN" "http://www.w3.org/Graphics/SVG/1.1/DTD/svg11.dtd">
<svg version="1.1" xmlns="http://www.w3.org/2000/svg" xmlns:xlink="http://www.w3.org/1999/xlink" x="0" y="0" width="1430" height="1528" viewBox="0, 0, 1430, 1528">
  <g id="Красная">
    <path d="M1070,349 L552.048,1064.727" fill-opacity="0" stroke="#FF0000" stroke-width="6" stroke-miterlimit="10"/>
  </g>

  <g id="um-station-1334"><rect x="1058" y="345" width="21" height="7" fill="#ff0000" style="cursor: pointer;" transform="matrix(1,0,0,1,0,0)"></rect><rect x="916.1563" y="341" width="135.8437500000001" height="15" fill="rgba(255,255,255,0.75)" style="cursor: pointer;"></rect><text x="0" y="0" fill="#787878" style="font-size: 15px; cursor: pointer;" transform="matrix(1,0,0,1,918.1563,353)">Тракторный завод</text><g style="opacity: 0;"><circle cx="1068.5" cy="348.5" r="11" fill="#4c4c4c" style="cursor: pointer;"></circle><path d="M13.5,15.5c-0.266,0,-0.52,-0.105,-0.707,-0.293l-3.141,-3.141c-0.391,-0.391,-0.391,-1.023,0,-1.414s1.023,-0.391,1.414,0l2.434,2.434l4.391,-4.392c0.391,-0.391,1.023,-0.391,1.414,0s0.391,1.023,0,1.414l-5.098,5.099C14.02,15.395,13.766,15.5,13.5,15.5z" transform="matrix(1,0,0,1,1054.5,336.5)" fill="#ffffff" style="cursor: pointer;"></path></g></g><g id="um-station-1335"><rect x="1036.875" y="380" width="7" height="7" fill="#ff0000" style="cursor: pointer;" transform="matrix(1,0,0,1,0,0)"></rect><rect x="941.7344" y="376" width="89.140625" height="15" fill="rgba(255,255,255,0.75)" style="cursor: pointer;"></rect><text x="0" y="0" fill="#787878" style="font-size: 15px; cursor: pointer;" transform="matrix(1,0,0,1,943.7344,388)">Хлебозавод</text><g style="opacity: 0;"><circle cx="1047.375" cy="383.5" r="11" fill="#4c4c4c" style="cursor: pointer;"></circle><path d="M13.5,15.5c-0.266,0,-0.52,-0.105,-0.707,-0.293l-3.141,-3.141c-0.391,-0.391,-0.391,-1.023,0,-1.414s1.023,-0.391,1.414,0l2.434,2.434l4.391,-4.392c0.391,-0.391,1.023,-0.391,1.414,0s0.391,1.023,0,1.414l-5.098,5.099C14.02,15.395,13.766,15.5,13.5,15.5z" transform="matrix(1,0,0,1,1033.375,371.5)" fill="#ffffff" style="cursor: pointer;"></path></g></g><g id="um-station-1336"><rect x="1011.875" y="414" width="7" height="7" fill="#ff0000" style="cursor: pointer;" transform="matrix(1,0,0,1,0,0)"></rect><rect x="918.1563" y="410" width="87.71875" height="15" fill="rgba(255,255,255,0.75)" style="cursor: pointer;"></rect><text x="0" y="0" fill="#787878" style="font-size: 15px; cursor: pointer;" transform="matrix(1,0,0,1,920.1563,422)">Водоотстой</text><g style="opacity: 0;"><circle cx="1022.375" cy="417.5" r="11" fill="#4c4c4c" style="cursor: pointer;"></circle><path d="M13.5,15.5c-0.266,0,-0.52,-0.105,-0.707,-0.293l-3.141,-3.141c-0.391,-0.391,-0.391,-1.023,0,-1.414s1.023,-0.391,1.414,0l2.434,2.434l4.391,-4.392c0.391,-0.391,1.023,-0.391,1.414,0s0.391,1.023,0,1.414l-5.098,5.099C14.02,15.395,13.766,15.5,13.5,15.5z" transform="matrix(1,0,0,1,1008.375,405.5)" fill="#ffffff" style="cursor: pointer;"></path></g></g><g id="um-station-1337"><rect x="986.875" y="448" width="7" height="7" fill="#ff0000" style="cursor: pointer;" transform="matrix(1,0,0,1,0,0)"></rect><rect x="852.2188" y="444" width="128.65625" height="15" fill="rgba(255,255,255,0.75)" style="cursor: pointer;"></rect><text x="0" y="0" fill="#787878" style="font-size: 15px; cursor: pointer;" transform="matrix(1,0,0,1,854.2188,456)">Больница Ильича</text><g style="opacity: 0;"><circle cx="997.375" cy="451.5" r="11" fill="#4c4c4c" style="cursor: pointer;"></circle><path d="M13.5,15.5c-0.266,0,-0.52,-0.105,-0.707,-0.293l-3.141,-3.141c-0.391,-0.391,-0.391,-1.023,0,-1.414s1.023,-0.391,1.414,0l2.434,2.434l4.391,-4.392c0.391,-0.391,1.023,-0.391,1.414,0s0.391,1.023,0,1.414l-5.098,5.099C14.02,15.395,13.766,15.5,13.5,15.5z" transform="matrix(1,0,0,1,983.375,439.5)" fill="#ffffff" style="cursor: pointer;"></path></g></g><g id="um-station-1338"><rect x="962.875" y="482" width="7" height="7" fill="#ff0000" style="cursor: pointer;" transform="matrix(1,0,0,1,0,0)"></rect><rect x="807.8438" y="478" width="149.03125" height="15" fill="rgba(255,255,255,0.75)" style="cursor: pointer;"></rect><text x="0" y="0" fill="#787878" style="font-size: 15px; cursor: pointer;" transform="matrix(1,0,0,1,809.8438,490)">Завод «Баррикады»</text><g style="opacity: 0;"><circle cx="973.375" cy="485.5" r="11" fill="#4c4c4c" style="cursor: pointer;"></circle><path d="M13.5,15.5c-0.266,0,-0.52,-0.105,-0.707,-0.293l-3.141,-3.141c-0.391,-0.391,-0.391,-1.023,0,-1.414s1.023,-0.391,1.414,0l2.434,2.434l4.391,-4.392c0.391,-0.391,1.023,-0.391,1.414,0s0.391,1.023,0,1.414l-5.098,5.099C14.02,15.395,13.766,15.5,13.5,15.5z" transform="matrix(1,0,0,1,959.375,473.5)" fill="#ffffff" style="cursor: pointer;"></path></g></g><g id="um-station-1339"><rect x="938.875" y="516" width="7" height="7" fill="#ff0000" style="cursor: pointer;" transform="matrix(1,0,0,1,0,0)"></rect><rect x="826.6719" y="512" width="106.203125" height="15" fill="rgba(255,255,255,0.75)" style="cursor: pointer;"></rect><text x="0" y="0" fill="#787878" style="font-size: 15px; cursor: pointer;" transform="matrix(1,0,0,1,828.6719,524)">Гимназия №14</text><g style="opacity: 0;"><circle cx="949.375" cy="519.5" r="11" fill="#4c4c4c" style="cursor: pointer;"></circle><path d="M13.5,15.5c-0.266,0,-0.52,-0.105,-0.707,-0.293l-3.141,-3.141c-0.391,-0.391,-0.391,-1.023,0,-1.414s1.023,-0.391,1.414,0l2.434,2.434l4.391,-4.392c0.391,-0.391,1.023,-0.391,1.414,0s0.391,1.023,0,1.414l-5.098,5.099C14.02,15.395,13.766,15.5,13.5,15.5z" transform="matrix(1,0,0,1,935.375,507.5)" fill="#ffffff" style="cursor: pointer;"></path></g></g><g id="um-station-1340"><rect x="913.875" y="550" width="7" height="7" fill="#ff0000" style="cursor: pointer;" transform="matrix(1,0,0,1,0,0)"></rect><rect x="759.4219" y="546" width="148.453125" height="15" fill="rgba(255,255,255,0.75)" style="cursor: pointer;"></rect><text x="0" y="0" fill="#787878" style="font-size: 15px; cursor: pointer;" transform="matrix(1,0,0,1,761.4219,558)">Стадион «Монолит»</text><g style="opacity: 0;"><circle cx="924.375" cy="553.5" r="11" fill="#4c4c4c" style="cursor: pointer;"></circle><path d="M13.5,15.5c-0.266,0,-0.52,-0.105,-0.707,-0.293l-3.141,-3.141c-0.391,-0.391,-0.391,-1.023,0,-1.414s1.023,-0.391,1.414,0l2.434,2.434l4.391,-4.392c0.391,-0.391,1.023,-0.391,1.414,0s0.391,1.023,0,1.414l-5.098,5.099C14.02,15.395,13.766,15.5,13.5,15.5z" transform="matrix(1,0,0,1,910.375,541.5)" fill="#ffffff" style="cursor: pointer;"></path></g></g><g id="um-station-1341"><rect x="888.875" y="584" width="7" height="7" fill="#ff0000" style="cursor: pointer;" transform="matrix(1,0,0,1,0,0)"></rect><rect x="687.8125" y="580" width="195.0625" height="15" fill="rgba(255,255,255,0.75)" style="cursor: pointer;"></rect><text x="0" y="0" fill="#787878" style="font-size: 15px; cursor: pointer;" transform="matrix(1,0,0,1,689.8125,592)">Завод «Красный Октябрь»</text><g style="opacity: 0;"><circle cx="899.375" cy="587.5" r="11" fill="#4c4c4c" style="cursor: pointer;"></circle><path d="M13.5,15.5c-0.266,0,-0.52,-0.105,-0.707,-0.293l-3.141,-3.141c-0.391,-0.391,-0.391,-1.023,0,-1.414s1.023,-0.391,1.414,0l2.434,2.434l4.391,-4.392c0.391,-0.391,1.023,-0.391,1.414,0s0.391,1.023,0,1.414l-5.098,5.099C14.02,15.395,13.766,15.5,13.5,15.5z" transform="matrix(1,0,0,1,885.375,575.5)" fill="#ffffff" style="cursor: pointer;"></path></g></g><g id="um-station-1342"><rect x="863.875" y="618" width="7" height="7" fill="#ff0000" style="cursor: pointer;" transform="matrix(1,0,0,1,0,0)"></rect><rect x="568.5469" y="614" width="289.328125" height="15" fill="rgba(255,255,255,0.75)" style="cursor: pointer;"></rect><text x="0" y="0" fill="#787878" style="font-size: 15px; cursor: pointer;" transform="matrix(1,0,0,1,570.5469,626)">Улица имени 39-й гвардейской дивизии</text><g style="opacity: 0;"><circle cx="874.375" cy="621.5" r="11" fill="#4c4c4c" style="cursor: pointer;"></circle><path d="M13.5,15.5c-0.266,0,-0.52,-0.105,-0.707,-0.293l-3.141,-3.141c-0.391,-0.391,-0.391,-1.023,0,-1.414s1.023,-0.391,1.414,0l2.434,2.434l4.391,-4.392c0.391,-0.391,1.023,-0.391,1.414,0s0.391,1.023,0,1.414l-5.098,5.099C14.02,15.395,13.766,15.5,13.5,15.5z" transform="matrix(1,0,0,1,860.375,609.5)" fill="#ffffff" style="cursor: pointer;"></path></g></g><g id="um-station-1355"><rect x="542.875" y="1061" width="21" height="7" fill="#ff0000" style="cursor: pointer;" transform="matrix(1,0,0,1,0,0)"></rect><rect x="461.8438" y="1057" width="75.03125" height="15" fill="rgba(255,255,255,0.75)" style="cursor: pointer;"></rect><text x="0" y="0" fill="#787878" style="font-size: 15px; cursor: pointer;" transform="matrix(1,0,0,1,463.8438,1069)">Ельшанка</text><g style="opacity: 0;"><circle cx="553.375" cy="1064.5" r="11" fill="#4c4c4c" style="cursor: pointer;"></circle><path d="M13.5,15.5c-0.266,0,-0.52,-0.105,-0.707,-0.293l-3.141,-3.141c-0.391,-0.391,-0.391,-1.023,0,-1.414s1.023,-0.391,1.414,0l2.434,2.434l4.391,-4.392c0.391,-0.391,1.023,-0.391,1.414,0s0.391,1.023,0,1.414l-5.098,5.099C14.02,15.395,13.766,15.5,13.5,15.5z" transform="matrix(1,0,0,1,539.375,1052.5)" fill="#ffffff" style="cursor: pointer;"></path></g></g><g id="um-station-1344"><rect x="814.875" y="686" width="7" height="7" fill="#ff0000" style="cursor: pointer;" transform="matrix(1,0,0,1,0,0)"></rect><rect x="700" y="682" width="108.875" height="15" fill="rgba(255,255,255,0.75)" style="cursor: pointer;"></rect><text x="0" y="0" fill="#787878" style="font-size: 15px; cursor: pointer;" transform="matrix(1,0,0,1,702,694)">Дворец спорта</text><g style="opacity: 0;"><circle cx="825.375" cy="689.5" r="11" fill="#4c4c4c" style="cursor: pointer;"></circle><path d="M13.5,15.5c-0.266,0,-0.52,-0.105,-0.707,-0.293l-3.141,-3.141c-0.391,-0.391,-0.391,-1.023,0,-1.414s1.023,-0.391,1.414,0l2.434,2.434l4.391,-4.392c0.391,-0.391,1.023,-0.391,1.414,0s0.391,1.023,0,1.414l-5.098,5.099C14.02,15.395,13.766,15.5,13.5,15.5z" transform="matrix(1,0,0,1,811.375,677.5)" fill="#ffffff" style="cursor: pointer;"></path></g></g><g id="um-station-1343"><rect x="839.875" y="652" width="7" height="7" fill="#ff0000" style="cursor: pointer;" transform="matrix(1,0,0,1,0,0)"></rect><rect x="663.9688" y="648" width="169.90625" height="15" fill="rgba(255,255,255,0.75)" style="cursor: pointer;"></rect><text x="0" y="0" fill="#787878" style="font-size: 15px; cursor: pointer;" transform="matrix(1,0,0,1,665.9688,660)">Площадь Возрождения</text><g style="opacity: 0;"><circle cx="850.375" cy="655.5" r="11" fill="#4c4c4c" style="cursor: pointer;"></circle><path d="M13.5,15.5c-0.266,0,-0.52,-0.105,-0.707,-0.293l-3.141,-3.141c-0.391,-0.391,-0.391,-1.023,0,-1.414s1.023,-0.391,1.414,0l2.434,2.434l4.391,-4.392c0.391,-0.391,1.023,-0.391,1.414,0s0.391,1.023,0,1.414l-5.098,5.099C14.02,15.395,13.766,15.5,13.5,15.5z" transform="matrix(1,0,0,1,836.375,643.5)" fill="#ffffff" style="cursor: pointer;"></path></g></g><g id="um-station-1345"><rect x="790.125" y="720" width="7" height="7" fill="#ff0000" style="cursor: pointer;" transform="matrix(1,0,0,1,0,0)"></rect><rect x="673.4375" y="716" width="110.6875" height="15" fill="rgba(255,255,255,0.75)" style="cursor: pointer;"></rect><text x="0" y="0" fill="#787878" style="font-size: 15px; cursor: pointer;" transform="matrix(1,0,0,1,675.4375,728)">Мамаев курган</text><g style="opacity: 0;"><circle cx="800.625" cy="723.5" r="11" fill="#4c4c4c" style="cursor: pointer;"></circle><path d="M13.5,15.5c-0.266,0,-0.52,-0.105,-0.707,-0.293l-3.141,-3.141c-0.391,-0.391,-0.391,-1.023,0,-1.414s1.023,-0.391,1.414,0l2.434,2.434l4.391,-4.392c0.391,-0.391,1.023,-0.391,1.414,0s0.391,1.023,0,1.414l-5.098,5.099C14.02,15.395,13.766,15.5,13.5,15.5z" transform="matrix(1,0,0,1,786.625,711.5)" fill="#ffffff" style="cursor: pointer;"></path></g></g><g id="um-station-1347"><rect x="740.875" y="788" width="7" height="7" fill="#ff0000" style="cursor: pointer;" transform="matrix(1,0,0,1,0,0)"></rect><rect x="623.1719" y="784" width="111.703125" height="15" fill="rgba(255,255,255,0.75)" style="cursor: pointer;"></rect><text x="0" y="0" fill="#787878" style="font-size: 15px; cursor: pointer;" transform="matrix(1,0,0,1,625.1719,796)">Парк Культуры</text><g style="opacity: 0;"><circle cx="751.375" cy="791.5" r="11" fill="#4c4c4c" style="cursor: pointer;"></circle><path d="M13.5,15.5c-0.266,0,-0.52,-0.105,-0.707,-0.293l-3.141,-3.141c-0.391,-0.391,-0.391,-1.023,0,-1.414s1.023,-0.391,1.414,0l2.434,2.434l4.391,-4.392c0.391,-0.391,1.023,-0.391,1.414,0s0.391,1.023,0,1.414l-5.098,5.099C14.02,15.395,13.766,15.5,13.5,15.5z" transform="matrix(1,0,0,1,737.375,779.5)" fill="#ffffff" style="cursor: pointer;"></path></g></g><g id="um-station-1346"><rect x="765.875" y="754" width="7" height="7" fill="#ff0000" style="cursor: pointer;" transform="matrix(1,0,0,1,0,0)"></rect><rect x="597.9531" y="750" width="161.921875" height="15" fill="rgba(255,255,255,0.75)" style="cursor: pointer;"></rect><text x="0" y="0" fill="#787878" style="font-size: 15px; cursor: pointer;" transform="matrix(1,0,0,1,599.9531,762)">Центральный стадион</text><g style="opacity: 0;"><circle cx="776.375" cy="757.5" r="11" fill="#4c4c4c" style="cursor: pointer;"></circle><path d="M13.5,15.5c-0.266,0,-0.52,-0.105,-0.707,-0.293l-3.141,-3.141c-0.391,-0.391,-0.391,-1.023,0,-1.414s1.023,-0.391,1.414,0l2.434,2.434l4.391,-4.392c0.391,-0.391,1.023,-0.391,1.414,0s0.391,1.023,0,1.414l-5.098,5.099C14.02,15.395,13.766,15.5,13.5,15.5z" transform="matrix(1,0,0,1,762.375,745.5)" fill="#ffffff" style="cursor: pointer;"></path></g></g><g id="um-station-1348"><rect x="716.875" y="822" width="7" height="7" fill="#ff0000" style="cursor: pointer;" transform="matrix(1,0,0,1,0,0)"></rect><rect x="621.9375" y="818" width="88.9375" height="15" fill="rgba(255,255,255,0.75)" style="cursor: pointer;"></rect><text x="0" y="0" fill="#787878" style="font-size: 15px; cursor: pointer;" transform="matrix(1,0,0,1,623.9375,830)">ТРК Европа</text><g style="opacity: 0;"><circle cx="727.375" cy="825.5" r="11" fill="#4c4c4c" style="cursor: pointer;"></circle><path d="M13.5,15.5c-0.266,0,-0.52,-0.105,-0.707,-0.293l-3.141,-3.141c-0.391,-0.391,-0.391,-1.023,0,-1.414s1.023,-0.391,1.414,0l2.434,2.434l4.391,-4.392c0.391,-0.391,1.023,-0.391,1.414,0s0.391,1.023,0,1.414l-5.098,5.099C14.02,15.395,13.766,15.5,13.5,15.5z" transform="matrix(1,0,0,1,713.375,813.5)" fill="#ffffff" style="cursor: pointer;"></path></g></g><g id="um-station-1349"><rect x="691.875" y="856" width="7" height="7" fill="#ff0000" style="cursor: pointer;" transform="matrix(1,0,0,1,0,0)"></rect><rect x="560.6875" y="852" width="125.1875" height="15" fill="rgba(255,255,255,0.75)" style="cursor: pointer;"></rect><text x="0" y="0" fill="#787878" style="font-size: 15px; cursor: pointer;" transform="matrix(1,0,0,1,562.6875,864)">Площадь Ленина</text><g style="opacity: 0;"><circle cx="702.375" cy="859.5" r="11" fill="#4c4c4c" style="cursor: pointer;"></circle><path d="M13.5,15.5c-0.266,0,-0.52,-0.105,-0.707,-0.293l-3.141,-3.141c-0.391,-0.391,-0.391,-1.023,0,-1.414s1.023,-0.391,1.414,0l2.434,2.434l4.391,-4.392c0.391,-0.391,1.023,-0.391,1.414,0s0.391,1.023,0,1.414l-5.098,5.099C14.02,15.395,13.766,15.5,13.5,15.5z" transform="matrix(1,0,0,1,688.375,847.5)" fill="#ffffff" style="cursor: pointer;"></path></g></g><g id="um-station-1351"><rect x="642.875" y="924" width="7" height="7" fill="#ff0000" style="cursor: pointer;" transform="matrix(1,0,0,1,0,0)"></rect><rect x="547.4844" y="920" width="89.390625" height="15" fill="rgba(255,255,255,0.75)" style="cursor: pointer;"></rect><text x="0" y="0" fill="#787878" style="font-size: 15px; cursor: pointer;" transform="matrix(1,0,0,1,549.4844,932)">Пионерская</text><g style="opacity: 0;"><circle cx="653.375" cy="927.5" r="11" fill="#4c4c4c" style="cursor: pointer;"></circle><path d="M13.5,15.5c-0.266,0,-0.52,-0.105,-0.707,-0.293l-3.141,-3.141c-0.391,-0.391,-0.391,-1.023,0,-1.414s1.023,-0.391,1.414,0l2.434,2.434l4.391,-4.392c0.391,-0.391,1.023,-0.391,1.414,0s0.391,1.023,0,1.414l-5.098,5.099C14.02,15.395,13.766,15.5,13.5,15.5z" transform="matrix(1,0,0,1,639.375,915.5)" fill="#ffffff" style="cursor: pointer;"></path></g></g><g id="um-station-1350"><rect x="666.875" y="890" width="7" height="7" fill="#ff0000" style="cursor: pointer;" transform="matrix(1,0,0,1,0,0)"></rect><rect x="545.8125" y="886" width="115.0625" height="15" fill="rgba(255,255,255,0.75)" style="cursor: pointer;"></rect><text x="0" y="0" fill="#787878" style="font-size: 15px; cursor: pointer;" transform="matrix(1,0,0,1,547.8125,898)">Комсомольская</text><g style="opacity: 0;"><circle cx="677.375" cy="893.5" r="11" fill="#4c4c4c" style="cursor: pointer;"></circle><path d="M13.5,15.5c-0.266,0,-0.52,-0.105,-0.707,-0.293l-3.141,-3.141c-0.391,-0.391,-0.391,-1.023,0,-1.414s1.023,-0.391,1.414,0l2.434,2.434l4.391,-4.392c0.391,-0.391,1.023,-0.391,1.414,0s0.391,1.023,0,1.414l-5.098,5.099C14.02,15.395,13.766,15.5,13.5,15.5z" transform="matrix(1,0,0,1,663.375,881.5)" fill="#ffffff" style="cursor: pointer;"></path></g></g><g id="um-station-1352"><rect x="617.875" y="958" width="7" height="7" fill="#ff0000" style="cursor: pointer;" transform="matrix(1,0,0,1,0,0)"></rect><rect x="472.4531" y="954" width="139.42187499999994" height="15" fill="rgba(255,255,255,0.75)" style="cursor: pointer;"></rect><text x="0" y="0" fill="#787878" style="font-size: 15px; cursor: pointer;" transform="matrix(1,0,0,1,474.4531,966)">Площадь Чекистов</text><g style="opacity: 0;"><circle cx="628.375" cy="961.5" r="11" fill="#4c4c4c" style="cursor: pointer;"></circle><path d="M13.5,15.5c-0.266,0,-0.52,-0.105,-0.707,-0.293l-3.141,-3.141c-0.391,-0.391,-0.391,-1.023,0,-1.414s1.023,-0.391,1.414,0l2.434,2.434l4.391,-4.392c0.391,-0.391,1.023,-0.391,1.414,0s0.391,1.023,0,1.414l-5.098,5.099C14.02,15.395,13.766,15.5,13.5,15.5z" transform="matrix(1,0,0,1,614.375,949.5)" fill="#ffffff" style="cursor: pointer;"></path></g></g><g id="um-station-1353"><rect x="593.875" y="992" width="7" height="7" fill="#ff0000" style="cursor: pointer;" transform="matrix(1,0,0,1,0,0)"></rect><rect x="483.7969" y="988" width="104.07812500000006" height="15" fill="rgba(255,255,255,0.75)" style="cursor: pointer;"></rect><text x="0" y="0" fill="#787878" style="font-size: 15px; cursor: pointer;" transform="matrix(1,0,0,1,485.7969,1000)">Профсоюзная</text><g style="opacity: 0;"><circle cx="604.375" cy="995.5" r="11" fill="#4c4c4c" style="cursor: pointer;"></circle><path d="M13.5,15.5c-0.266,0,-0.52,-0.105,-0.707,-0.293l-3.141,-3.141c-0.391,-0.391,-0.391,-1.023,0,-1.414s1.023,-0.391,1.414,0l2.434,2.434l4.391,-4.392c0.391,-0.391,1.023,-0.391,1.414,0s0.391,1.023,0,1.414l-5.098,5.099C14.02,15.395,13.766,15.5,13.5,15.5z" transform="matrix(1,0,0,1,590.375,983.5)" fill="#ffffff" style="cursor: pointer;"></path></g></g><g id="um-station-1354"><rect x="568.875" y="1026" width="7" height="7" fill="#ff0000" style="cursor: pointer;" transform="matrix(1,0,0,1,0,0)"></rect><rect x="524.7188" y="1022" width="38.15625" height="15" fill="rgba(255,255,255,0.75)" style="cursor: pointer;"></rect><text x="0" y="0" fill="#787878" style="font-size: 15px; cursor: pointer;" transform="matrix(1,0,0,1,526.7188,1034)">ТЮЗ</text><g style="opacity: 0;"><circle cx="579.375" cy="1029.5" r="11" fill="#4c4c4c" style="cursor: pointer;"></circle><path d="M13.5,15.5c-0.266,0,-0.52,-0.105,-0.707,-0.293l-3.141,-3.141c-0.391,-0.391,-0.391,-1.023,0,-1.414s1.023,-0.391,1.414,0l2.434,2.434l4.391,-4.392c0.391,-0.391,1.023,-0.391,1.414,0s0.391,1.023,0,1.414l-5.098,5.099C14.02,15.395,13.766,15.5,13.5,15.5z" transform="matrix(1,0,0,1,565.375,1017.5)" fill="#ffffff" style="cursor: pointer;"></path></g></g><g id="um-select-line-1" style="cursor: pointer;"><rect x="1058" y="307" width="21" height="21" rx="3" ry="3" fill="#ff0000"></rect><text x="1064.046875" y="323" fill="#ffffff">1</text></g><g id="um-select-line-2" style="cursor: pointer;"><rect x="542" y="1085" width="21" height="21" rx="3" ry="3" fill="#ff0000"></rect><text x="548.046875" y="1101" fill="#ffffff">1</text></g>
</svg>
