<?xml version="1.0" encoding="UTF-8" standalone="no"?>
<svg width="72px" height="72px" viewBox="0 0 72 72" version="1.1" xmlns="http://www.w3.org/2000/svg" xmlns:xlink="http://www.w3.org/1999/xlink" xmlns:sketch="http://www.bohemiancoding.com/sketch/ns">
    <!-- Generator: Sketch 3.3.2 (12043) - http://www.bohemiancoding.com/sketch -->
    <title>Продвижение</title>
    <desc>Created with Sketch.</desc>
    <defs></defs>
    <g id="Главная-страница" stroke="none" stroke-width="1" fill="none" fill-rule="evenodd" sketch:type="MSPage">
        <g id="Desktop-HD" sketch:type="MSArtboardGroup" transform="translate(-789.000000, -3770.000000)">
            <g id="Подать-объявление" sketch:type="MSLayerGroup" transform="translate(305.000000, 3672.000000)">
                <g id="Доступное-+-Продвижение" transform="translate(470.000000, 99.000000)" sketch:type="MSShapeGroup">
                    <g id="Продвижение" transform="translate(15.000000, 0.000000)">
                        <path d="M25.752,0.738 L25.752,25.869 M25.567,25.869 L0.621,25.869 M43.523,8.099 L7.981,43.639 M31.521,31.638 L7.981,8.099" id="Stroke-1" stroke="#FF4C4C" stroke-width="2" stroke-linecap="round"></path>
                        <path d="M36.693,25.685 C36.693,31.829 31.712,36.811 25.568,36.811 C19.424,36.811 14.443,31.829 14.443,25.685 C14.443,19.541 19.424,14.56 25.568,14.56 C31.712,14.56 36.693,19.541 36.693,25.685" id="Fill-2" fill="#F7F7F7"></path>
                        <path d="M62.979198,38.9195545 C63.8134165,38.4104985 63.7379106,37.7419059 62.8087008,37.4350109 L26.1493625,25.3418865 C25.2201527,25.0362094 24.7110967,25.5452654 25.0179917,26.4744752 L37.111116,63.1338134 C37.4167932,64.0630233 38.084168,64.1397471 38.593224,63.3043107 L44.5240916,53.5847512 C45.0343655,52.748097 46.0171602,52.6311846 46.7088917,53.324134 L62.8208791,69.4361214 C63.5126107,70.127853 64.6451994,70.127853 65.336931,69.4361214 L69.1097909,65.6620437 C69.8015225,64.9703121 69.8015225,63.8389412 69.1097909,63.1472097 L52.9978035,47.0352223 C52.3060719,46.3422728 52.4242022,45.360696 53.2584207,44.8504221 L62.979198,38.9195545 L62.979198,38.9195545 Z" id="Stroke-3" stroke="#2E8AE6" stroke-width="2" stroke-linecap="round"></path>
                    </g>
                </g>
            </g>
        </g>
    </g>
</svg>