<?xml version="1.0" encoding="UTF-8" standalone="no"?>
<svg width="80px" height="70px" viewBox="0 0 80 70" version="1.1" xmlns="http://www.w3.org/2000/svg" xmlns:xlink="http://www.w3.org/1999/xlink" xmlns:sketch="http://www.bohemiancoding.com/sketch/ns">
    <!-- Generator: Sketch 3.3.2 (12043) - http://www.bohemiancoding.com/sketch -->
    <title>Фотки</title>
    <desc>Created with Sketch.</desc>
    <defs></defs>
    <g id="Главная-страница" stroke="none" stroke-width="1" fill="none" fill-rule="evenodd" sketch:type="MSPage">
        <g id="Desktop-HD" sketch:type="MSArtboardGroup" transform="translate(-562.000000, -3772.000000)" stroke-width="2">
            <g id="Подать-объявление" sketch:type="MSLayerGroup" transform="translate(305.000000, 3672.000000)">
                <g id="Крупные-+-Фотки" transform="translate(240.000000, 100.000000)" sketch:type="MSShapeGroup">
                    <g id="Фотки" transform="translate(17.000000, 0.000000)">
                        <g id="Лист" stroke="#2E8AE6">
                            <path d="M0,5.00613538 C0,2.24132316 2.24220335,0 4.99616376,0 L58.0038362,0 C60.7631413,0 64.5386198,1.62912682 66.4299737,3.63173683 L76.5700263,14.3682632 C78.4643485,16.374016 80,20.234375 80,23.0095798 L80,64.9904202 C80,67.7571347 77.7557794,70 74.9956417,70 L5.00435829,70 C2.24052752,70 0,67.7698803 0,64.9938646 L0,5.00613538 Z" id="Rectangle-54"></path>
                            <path d="M60,6 L60,18.0005775 C60,19.6571128 61.3423789,21 63.0033512,21 L74,21" id="Line" stroke-linecap="square"></path>
                        </g>
                        <g id="Дом" transform="translate(21.000000, 22.000000)" stroke="#FF4C4C">
                            <path d="M5,10 L5,24.9991283 C5,25.5518945 5.44610862,26 5.99296544,26 L31.0070346,26 C31.5554342,26 32,25.5553691 32,24.9991283 L32,10" id="Path-106" stroke-linecap="round"></path>
                            <path d="M14,25 L14,14 L23,14 L23,25" id="Path-106" stroke-linejoin="round"></path>
                            <path d="M0,14.9999993 L17.06373,-1.56212852 C17.85696,-2.33204088 19.1368119,-2.33808586 19.93627,-1.56212847 L37,15" id="Line" stroke-linecap="round"></path>
                        </g>
                    </g>
                </g>
            </g>
        </g>
    </g>
</svg>