<?xml version="1.0" encoding="UTF-8" standalone="no"?>
<svg width="260px" height="23px" viewBox="0 0 260 23" version="1.1" xmlns="http://www.w3.org/2000/svg" xmlns:xlink="http://www.w3.org/1999/xlink" xmlns:sketch="http://www.bohemiancoding.com/sketch/ns">
    <!-- Generator: Sketch 3.3.2 (12043) - http://www.bohemiancoding.com/sketch -->
    <title>Лого</title>
    <desc>Created with Sketch.</desc>
    <defs></defs>
    <g id="Главная-страница" stroke="none" stroke-width="1" fill="none" fill-rule="evenodd" sketch:type="MSPage">
        <g id="Desktop-HD" sketch:type="MSArtboardGroup" transform="translate(-591.000000, -2127.000000)" fill="#FF0000">
            <g id="Журнал" sketch:type="MSLayerGroup" transform="translate(251.000000, 2127.000000)">
                <g id="Лого" transform="translate(340.000000, 0.000000)" sketch:type="MSShapeGroup">
                    <path d="M0.433535448,0.35342441 L1.87739039,0.35342441 L1.87739039,18.8190882 L0.433535448,18.8190882 L0.433535448,0.35342441 Z M4.60593517,9.10753378 L9.59235075,14.9664574 C11.5341651,17.1852619 12.7961171,17.8936341 13.8466068,17.5234525 L13.8466068,18.8190882 C11.9025187,19.5274604 9.85383629,17.5234525 8.41225513,15.782228 L2.74370336,9.19208143 L11.3795476,0.35342441 L13.1349114,0.35342441 L4.60593517,9.10753378 L4.60593517,9.10753378 Z" id="Fill-2"></path>
                    <path d="M18.0235541,0.38084527 C19.0467584,0.35342441 21.2546059,0.273446904 22.8530784,0.273446904 C27.2369403,0.273446904 28.6535098,2.27745471 28.6535098,4.83673492 C28.6535098,7.29090184 27.0004664,8.71450146 25.0836637,9.1623755 L25.0836637,9.21264707 C27.7371735,9.53027203 29.3629314,11.0658402 29.3629314,13.6479711 C29.3629314,17.3383617 26.5548041,18.8990657 22.8280667,18.8990657 C21.2546059,18.8990657 19.0990555,18.8396538 18.0235541,18.7893822 L18.0235541,0.38084527 L18.0235541,0.38084527 Z M19.467409,1.72446738 L19.467409,8.74420739 L23.0349813,8.74420739 C25.3201376,8.74420739 27.2119286,7.39601514 27.2119286,5.12922409 C27.2119286,2.88528376 25.818097,1.64677495 22.8007813,1.64677495 C21.670709,1.64677495 20.2041161,1.69933159 19.467409,1.72446738 L19.467409,1.72446738 Z M19.467409,10.0307027 L19.467409,17.4160542 C20.2041161,17.4480452 21.7252799,17.5234525 22.8803638,17.5234525 C26.0295592,17.5234525 27.9213503,16.230102 27.9213503,13.5702786 C27.9213503,11.3034876 26.1341535,10.0307027 22.9576726,10.0307027 L19.467409,10.0307027 L19.467409,10.0307027 Z" id="Fill-3"></path>
                    <path d="M40.4840252,0.118062034 L49.1426073,18.8190882 L47.4918377,18.8190882 L44.7610191,12.8550512 L36.2570546,12.8550512 L33.633104,18.8190882 L32.030084,18.8190882 L40.4840252,0.118062034 L40.4840252,0.118062034 Z M36.8596082,11.4817232 L44.13118,11.4817232 L40.4567397,3.38799952 L36.8596082,11.4817232 L36.8596082,11.4817232 Z" id="Fill-4"></path>
                    <path d="M51.0548624,17.4480452 L53.0239622,17.4480452 C53.7834072,16.4700345 55.7502332,12.4368831 56.2027169,4.04610014 L56.3846199,0.35342441 L66.7258046,0.35342441 L66.7258046,17.4480452 L69.2178755,17.4480452 L69.2178755,22.3472387 L67.8536031,22.3472387 L67.8536031,18.8190882 L52.4191348,18.8190882 L52.4191348,22.3472387 L51.0548624,22.3472387 L51.0548624,17.4480452 L51.0548624,17.4480452 Z M54.6224347,17.4480452 L65.2819496,17.4480452 L65.2819496,1.72446738 L57.7739039,1.72446738 L57.5647155,5.10180323 C57.0690299,12.7225171 55.3341301,16.6002836 54.6224347,17.4480452 L54.6224347,17.4480452 Z" id="Fill-5"></path>
                    <path d="M73.4152868,18.8190882 L73.4152868,0.35342441 C74.4407649,0.35342441 76.8555271,0.29629762 77.9060168,0.29629762 C82.9970266,0.29629762 84.4408815,3.12521628 84.4408815,5.86730222 C84.4408815,8.74420739 82.4695079,11.509144 77.9060168,11.509144 C77.03743,11.509144 75.9119053,11.4817232 74.8591418,11.4063158 L74.8591418,18.8190882 L73.4152868,18.8190882 L73.4152868,18.8190882 Z M74.8591418,1.72446738 L74.8591418,10.007852 C75.8800723,10.0878295 76.8032299,10.1403861 77.8514459,10.1403861 C81.1825443,10.1403861 82.9151702,8.37402579 82.9151702,5.83988136 C82.9151702,3.43827109 81.5031483,1.66962566 78.0356227,1.66962566 C77.2216068,1.66962566 75.7277285,1.69933159 74.8591418,1.72446738 L74.8591418,1.72446738 Z" id="Fill-6"></path>
                    <path d="M94.8138993,18.974473 L93.2631763,18.974473 L95.2822994,14.9413216 L86.4145289,0.35342441 L88.1426073,0.35342441 L96.0485658,13.4628803 L102.501574,0.35342441 L104.050023,0.35342441 L94.8138993,18.974473" id="Fill-7"></path>
                    <path d="M108.279268,0.118062034 L116.578591,8.13637834 L124.609608,0.118062034 L124.609608,18.8190882 L123.168027,18.8190882 L123.168027,3.5182486 L116.578591,10.1403861 L109.729944,3.49539788 L109.729944,18.8190882 L108.279268,18.8190882 L108.279268,0.118062034" id="Fill-8"></path>
                    <path d="M130.864797,15.4920239 C131.410506,15.4920239 131.808419,15.9627486 131.808419,16.4403286 C131.808419,16.995601 131.410506,17.4960317 130.864797,17.4960317 C130.23041,17.4960317 129.816581,16.995601 129.816581,16.4403286 C129.816581,15.9627486 130.23041,15.4920239 130.864797,15.4920239" id="Fill-9"></path>
                    <path d="M140.39424,0.35342441 L144.093692,0.35342441 L150.76271,9.1623755 L150.76271,0.35342441 L153.964202,0.35342441 L153.964202,9.1623755 L160.605935,0.35342441 L164.332673,0.35342441 L157.431728,9.1623755 L164.621444,18.8190882 L160.894706,18.8190882 L153.964202,9.24463807 L153.964202,18.8190882 L150.76271,18.8190882 L150.76271,9.24463807 L143.807194,18.8190882 L140.103195,18.8190882 L147.297458,9.19208143 L140.39424,0.35342441" id="Fill-10"></path>
                    <path d="M175.469683,18.8716448 L172.031716,18.8716448 L174.289587,14.3563433 L165.942514,0.35342441 L169.801131,0.35342441 L175.992654,11.1161117 L181.215543,0.35342441 L184.658057,0.35342441 L175.469683,18.8716448" id="Fill-11"></path>
                    <path d="M188.389342,18.8190882 L188.389342,0.35342441 C189.410273,0.35342441 192.325268,0.29629762 193.612232,0.29629762 C199.019298,0.29629762 200.724639,3.20290872 200.724639,6.23519875 C200.724639,9.37488716 198.389459,12.2220864 194.005597,12.2220864 C193.453067,12.2220864 192.404851,12.2220864 191.61812,12.146679 L191.61812,18.8190882 L188.389342,18.8190882 L188.389342,18.8190882 Z M191.61812,3.38799952 L191.61812,9.05954727 C192.377565,9.13723971 193.166569,9.19208143 193.898729,9.19208143 C195.815532,9.19208143 197.311684,8.26662742 197.311684,6.21006297 C197.311684,4.28146252 196.131588,3.3331578 193.928288,3.3331578 C193.271164,3.3331578 192.48216,3.35829359 191.61812,3.38799952 L191.61812,3.38799952 Z" id="Fill-12"></path>
                    <path d="M216.950385,10.9310209 L208.551014,10.9310209 L208.551014,18.8190882 L205.322236,18.8190882 L205.322236,0.35342441 L208.551014,0.35342441 L208.551014,7.89644582 L216.950385,7.89644582 L216.950385,0.35342441 L220.156425,0.35342441 L220.156425,18.8190882 L216.950385,18.8190882 L216.950385,10.9310209" id="Fill-13"></path>
                    <path d="M232.478078,0.0655053864 L241.848356,18.8190882 L238.121618,18.8190882 L236.127507,14.7036742 L228.778626,14.7036742 L226.861824,18.8190882 L223.316989,18.8190882 L232.478078,0.0655053864 L232.478078,0.0655053864 Z M230.195196,11.666814 L234.681378,11.666814 L232.396222,6.92072024 L230.195196,11.666814 L230.195196,11.666814 Z" id="Fill-14"></path>
                    <path d="M256.466535,3.38799952 L251.111765,3.38799952 L250.743412,6.87044866 C249.66791,17.5988599 247.27816,19.3446546 243.656017,18.8190882 L243.735599,15.5994222 C245.154443,15.782228 247.016674,15.1789691 247.832964,4.04610014 L248.092176,0.35342441 L259.670301,0.35342441 L259.670301,18.8190882 L256.466535,18.8190882 L256.466535,3.38799952" id="Fill-15"></path>
                </g>
            </g>
        </g>
    </g>
</svg>