<?xml version="1.0" encoding="UTF-8" standalone="no"?>
<svg width="376px" height="40px" viewBox="0 0 376 40" version="1.1" xmlns="http://www.w3.org/2000/svg" xmlns:xlink="http://www.w3.org/1999/xlink" xmlns:sketch="http://www.bohemiancoding.com/sketch/ns">
    <!-- Generator: Sketch 3.2.2 (9983) - http://www.bohemiancoding.com/sketch -->
    <title>Imported Layers</title>
    <desc>Created with Sketch.</desc>
    <defs></defs>
    <g id="Выдача" stroke="none" stroke-width="1" fill="none" fill-rule="evenodd" sketch:type="MSPage">
        <g id="Imported-Layers" sketch:type="MSLayerGroup">
            <path d="M59.074,11.001 L82.511,11.001 L82.511,28.27 L59.074,28.27 L59.074,11.001 Z M57.841,29.504 L83.744,29.504 L83.744,9.768 L57.841,9.768 L57.841,29.504 Z M71.665,22.719 L69.92,22.719 L59.872,12.671 L60.744,11.799 L70.431,21.485 L71.154,21.485 L80.841,11.799 L81.713,12.671 L71.665,22.719 L71.665,22.719 Z" id="Fill-1" opacity="0.5" fill="#000000" sketch:type="MSShapeGroup"></path>
            <path d="M309.569,17.936 L312.036,17.936 L312.036,20.403 L309.569,20.403 L309.569,17.936 Z M319.437,19.169 C319.437,22.869 318.203,22.869 318.203,22.869 L318.203,27.804 C318.203,27.804 318.203,29.037 316.97,29.037 L298.468,29.037 C297.234,29.037 296,27.804 296,26.57 L296,11.768 C296,10.534 297.234,9.301 298.468,9.301 L316.969,9.301 C318.201,9.301 318.203,10.534 318.203,10.534 L318.203,15.469 C318.203,15.469 319.437,15.469 319.437,19.169 L319.437,19.169 Z M316.971,27.769 L316.97,22.869 L312.036,22.869 C309.312,22.869 307.102,22.869 307.102,19.169 C307.102,15.469 309.312,15.469 312.036,15.469 L316.97,15.469 L316.97,10.534 C316.97,10.534 316.97,10.534 316.969,10.534 L298.468,10.534 C297.913,10.534 297.234,11.214 297.234,11.768 L297.234,26.57 C297.234,27.123 297.913,27.804 298.468,27.804 L316.965,27.804 C316.969,27.791 316.97,27.779 316.971,27.769 L316.971,27.769 Z M318.203,19.169 C318.203,17.615 317.97,16.949 317.844,16.702 L316.97,16.702 L312.036,16.702 C309.569,16.702 308.336,16.702 308.336,19.169 C308.336,21.636 309.569,21.636 312.036,21.636 L316.97,21.636 L317.844,21.636 C317.97,21.391 318.203,20.723 318.203,19.169 L318.203,19.169 Z" id="Fill-2" opacity="0.5" fill="#000000" sketch:type="MSShapeGroup"></path>
            <path d="M133.814,30.796 C133.693,30.796 133.573,30.762 133.467,30.689 L126.281,25.799 L119.095,30.689 C118.877,30.839 118.593,30.829 118.383,30.678 C118.172,30.522 118.082,30.251 118.158,30.001 L120.667,21.716 L114.179,16.576 C113.977,16.415 113.897,16.148 113.977,15.902 C114.055,15.656 114.28,15.487 114.538,15.476 L122.817,15.131 L125.703,7.361 C125.884,6.88 126.68,6.88 126.859,7.361 L129.745,15.131 L138.025,15.476 C138.283,15.487 138.507,15.656 138.586,15.902 C138.666,16.148 138.584,16.415 138.382,16.576 L131.897,21.716 L134.404,30.001 C134.481,30.251 134.39,30.522 134.178,30.678 C134.069,30.755 133.944,30.796 133.814,30.796 L133.814,30.796 Z M126.281,24.435 C126.404,24.435 126.523,24.472 126.629,24.544 L132.718,28.686 L130.593,21.67 C130.518,21.429 130.602,21.166 130.8,21.007 L136.315,16.64 L129.284,16.348 C129.036,16.338 128.817,16.179 128.731,15.945 L126.281,9.352 L123.832,15.945 C123.744,16.179 123.527,16.338 123.279,16.348 L116.249,16.64 L121.763,21.007 C121.962,21.166 122.044,21.429 121.97,21.67 L119.845,28.686 L125.937,24.544 C126.041,24.472 126.158,24.435 126.281,24.435 L126.281,24.435 Z" id="Fill-3" opacity="0.5" fill="#000000" sketch:type="MSShapeGroup"></path>
            <path d="M248.868,9.722 C248.868,8.359 248.791,6.33 251.335,6.33 C253.879,6.33 253.803,8.359 253.803,9.722 M253.803,28.533 C253.803,29.896 252.697,31 251.335,31 C249.973,31 248.868,29.896 248.868,28.533" id="Stroke-4" stroke="#000000" stroke-width="1.234" opacity="0.5" sketch:type="MSShapeGroup"></path>
            <path d="M251.335,10.03 C257.219,10.03 257.741,13.621 258.346,17.778 C258.756,20.591 259.255,24.019 262.437,24.708 L262.437,27.3 L240.233,27.3 L240.233,24.708 C243.416,24.019 243.915,20.591 244.324,17.777 C244.929,13.62 245.451,10.03 251.335,10.03 M251.335,8.797 C239,8.797 246.401,23.599 239,23.599 L239,28.533 L263.67,28.533 L263.67,23.599 C256.27,23.599 263.67,8.797 251.335,8.797" id="Fill-5" opacity="0.5" fill="#000000" sketch:type="MSShapeGroup"></path>
            <path d="M3.19,25.212 C2.186,25.39 -0.235,17.534 1.773,17.181 C7.797,16.119 17.11,9.715 17.11,9.715 C17.578,9.404 18.127,9.575 18.329,10.103 C18.329,10.103 19.742,13.408 20.59,18.22 C21.439,23.03 21.184,26.222 21.184,26.222 C21.161,26.774 20.71,27.115 20.155,26.981 C20.155,26.981 9.213,24.151 3.19,25.212 L3.19,25.212 Z M19.665,13.969 C19.665,13.969 23.854,14.254 24.386,17.266 C24.917,20.278 21.081,22.001 21.081,22.001 L19.665,13.969 Z M7.005,25.345 C7.005,25.345 7.391,26.274 7.867,27.426 L10.214,33.083 C10.43,33.604 11.051,33.949 11.611,33.852 C12.164,33.752 12.558,33.221 12.487,32.659 L11.585,25.459 L7.005,25.345 Z" id="Stroke-6" stroke="#000000" stroke-width="1.234" stroke-linecap="round" stroke-linejoin="round" opacity="0.5" sketch:type="MSShapeGroup"></path>
            <path d="M355.03,17.936 L367.365,17.936 L367.365,19.169 L355.03,19.169 L355.03,17.936 Z M355.03,15.469 L371.066,15.469 L371.066,14.236 L355.03,14.236 L355.03,15.469 Z M350.097,9.301 L376,9.301 L376,29.037 L350.097,29.037 L350.097,9.301 Z M374.767,10.534 L351.33,10.534 L351.33,27.804 L355.03,27.804 L355.03,24.103 L356.264,24.103 L356.264,27.804 L359.965,27.804 L359.965,24.103 L361.198,24.103 L361.198,27.804 L364.898,27.804 L364.898,24.103 L366.132,24.103 L366.132,27.804 L369.832,27.804 L369.832,24.103 L371.066,24.103 L371.066,27.804 L374.767,27.804 L374.767,10.534 L374.767,10.534 Z" id="Fill-7" opacity="0.5" fill="#000000" sketch:type="MSShapeGroup"></path>
            <path d="M180.957,39.83 L181.21,39.578 L181.21,24.287 L192.269,24.287 L201.01,39.703 L201.232,39.83 L215.978,39.83 L216.194,39.442 L203.952,19.693 L214.909,0.378 L214.688,0 L200.809,0 L200.583,0.137 L192.911,15.015 L181.21,15.015 L181.21,0.252 L180.957,0 L168.253,0 L168,0.252 L168,39.578 L168.253,39.83 L180.957,39.83" id="Fill-8" fill="#FF0000" sketch:type="MSShapeGroup"></path>
        </g>
    </g>
</svg>