<?xml version="1.0" encoding="utf-8"?><!DOCTYPE svg PUBLIC "-//W3C//DTD SVG 1.1//EN" "http://www.w3.org/Graphics/SVG/1.1/DTD/svg11.dtd"><svg width="240" height="240" viewBox="0 0 240 240" xmlns="http://www.w3.org/2000/svg" xmlns:xlink="http://www.w3.org/1999/xlink"><svg width="120" height="120" viewBox="-595.5 420.5 120 120" enable-background="new -595.5 420.5 120 120" id="comparison-clean"><path fill="none" stroke="#2E8AE6" stroke-width="2" stroke-linecap="round" stroke-linejoin="round" stroke-miterlimit="10" d="M-520.983 481.5l10.99-29 11.01 29"/><path fill="none" stroke="#2E8AE6" stroke-width="2" stroke-linecap="round" stroke-linejoin="round" stroke-miterlimit="10" d="M-561.012 511.5c14.99 0 10.99-15 10.99-15h-22s-3.98 15 11.01 15zM-509.993 496.5c15.01 0 11.01-15 11.01-15h-22s-4.02 15 10.99 15zM-572.02 496.5l11.008-29 10.99 29M-561.02 467.5l19.646-5.775M-529.902 458.353l19.91-5.853"/><circle fill="none" stroke="#2E8AE6" stroke-width="2" stroke-miterlimit="10" cx="-535.5" cy="460.5" r="6"/></svg><svg width="120" height="120" viewBox="-595.5 420.5 120 120" enable-background="new -595.5 420.5 120 120" id="favorite_clean" x="120"><path fill="none" stroke="#2E8AE6" stroke-width="2" stroke-linecap="round" stroke-linejoin="round" stroke-miterlimit="10" d="M-535.5 512.5c8.415-6.486 14.757-11.55 19.677-16.192s8.416-8.864 11.14-13.67c3.837-6.762 4.592-13.007 3.175-18.122-1.417-5.114-5.006-9.098-9.857-11.337-4.56-2.1-9.54-2.164-13.908-.568-4.367 1.596-8.12 4.852-10.226 9.396-2.112-4.544-5.87-7.8-10.24-9.396s-9.356-1.53-13.923.567c-4.844 2.238-8.425 6.222-9.837 11.336-1.413 5.115-.657 11.36 3.174 18.123 2.72 4.804 6.216 9.025 11.138 13.668s11.267 9.706 19.688 16.192z"/></svg><svg width="120" height="120" viewBox="-595.5 420.5 120 120" enable-background="new -595.5 420.5 120 120" id="settings-clean" y="120"><path fill="none" stroke="#2E8AE6" stroke-width="1.905" stroke-miterlimit="10" d="M-545.5 481.498c0-5.522 4.48-9.998 10-9.998 5.524 0 10 4.476 10 9.998s-4.476 10.002-10 10.002c-5.522 0-10-4.48-10-10.002zm41 .002c0-1.12-.113-2.493-.113-2.493-.038-.453-.41-.973-.828-1.15l-9.664-4.164c-.418-.18-.622-.673-.454-1.096l3.885-9.76c.168-.424.058-1.046-.246-1.385l-3.53-3.533c-.34-.303-.962-.414-1.385-.246l-9.764 3.882c-.422.17-.915-.036-1.094-.453l-4.16-9.66c-.18-.416-.697-.79-1.15-.827 0 0-1.374-.115-2.496-.115-1.12 0-2.494.116-2.494.116-.453.038-.97.41-1.15.828l-4.163 9.66c-.18.416-.673.622-1.095.452l-9.766-3.882c-.422-.168-1.045-.057-1.383.247l-3.533 3.532c-.304.34-.415.96-.246 1.384l3.887 9.76c.168.424-.036.918-.453 1.097l-9.66 4.163c-.416.18-.79.698-.828 1.15 0 0-.116 1.374-.116 2.494 0 1.122.116 2.495.116 2.495.038.453.412.973.83 1.15l9.658 4.16c.417.18.622.673.453 1.096l-3.886 9.768c-.167.423-.057 1.043.247 1.382l3.535 3.532c.338.304.96.414 1.383.246l9.762-3.886c.422-.168.915.036 1.095.453l4.16 9.663c.18.42.698.79 1.15.828 0 0 1.376.113 2.497.113 1.122 0 2.495-.114 2.495-.114.453-.037.97-.41 1.15-.828l4.16-9.663c.18-.417.672-.62 1.095-.453l9.764 3.886c.423.168 1.045.058 1.384-.246l3.532-3.532c.304-.34.415-.96.246-1.382l-3.885-9.767c-.167-.422.037-.914.455-1.095l9.663-4.16c.417-.178.79-.697.828-1.15 0 0 .114-1.373.114-2.495z"/></svg><svg width="120" height="120" viewBox="-595.5 420.5 120 120" enable-background="new -595.5 420.5 120 120" id="subscribe-clean" x="120" y="120"><path fill="none" stroke="#2E8AE6" stroke-width="2" stroke-linecap="round" stroke-miterlimit="10" d="M-559.5 500.5v-46.998c0-.553.44-1.002 1-1.002h57c.553 0 1 .44 1 .998v47.992c0 5.527-4.485 10.01-9.992 10.01h-50.016c-5.52 0-9.992-4.486-9.992-9.996v-36.002c0-.553.445-1.002.996-1.002h9.004"/><path fill="none" stroke="#2E8AE6" stroke-width="2" stroke-miterlimit="10" d="M-547.5 465.5h35M-547.5 475.5h35M-547.5 485.5h35"/></svg></svg>