<?xml version="1.0" encoding="UTF-8" standalone="no"?><!DOCTYPE svg PUBLIC "-//W3C//DTD SVG 1.1//EN" "http://www.w3.org/Graphics/SVG/1.1/DTD/svg11.dtd"><svg width="254" height="150" viewBox="0 0 254 150" xmlns="http://www.w3.org/2000/svg" xmlns:xlink="http://www.w3.org/1999/xlink"><svg width="80" height="68" viewBox="0 0 80 68" id="chart" x="102"><title>Эффективность</title><desc>Created with Sketch.</desc><g fill="none" fill-rule="evenodd"><g transform="translate(-1039 -3774)" stroke-width="2"><g transform="translate(305)"><g transform="translate(704 3775)"><g transform="translate(31)"><rect id="aRectangle-55" stroke="#FF4C4C" x="50" y="9" width="12" height="43" rx="2"/><rect id="aRectangle-55" stroke="#FF4C4C" x="32" y="24" width="12" height="28" rx="2"/><rect stroke="#FF4C4C" x="14" y="33" width="12" height="19" rx="2"/><path d="M0 0v61c0 2.76 2.23 5 4.998 5H78" stroke="#2E8AE6" stroke-linecap="round" stroke-linejoin="round"/></g></g></g></g></g></svg><svg width="72" height="72" viewBox="0 0 72 72" id="click" x="182"><title>Продвижение</title><desc>Created with Sketch.</desc><g fill="none" fill-rule="evenodd"><g transform="translate(-789 -3770)"><g transform="translate(305)"><g transform="translate(470 3771)"><g transform="translate(15)"><path d="M25.752.738v25.13m-.185 0H.62M43.524 8.1L7.98 43.64m23.54-12L7.98 8.098" stroke="#FF4C4C" stroke-width="2" stroke-linecap="round"/><path d="M36.693 25.685c0 6.144-4.98 11.126-11.125 11.126-6.144 0-11.125-4.98-11.125-11.125 0-6.144 4.98-11.125 11.125-11.125 6.144 0 11.125 4.98 11.125 11.125" fill="#F7F7F7"/><path d="M62.98 38.92c.833-.51.758-1.178-.17-1.485L26.15 25.342c-.93-.306-1.44.203-1.132 1.132l12.093 36.66c.307.93.974 1.006 1.483.17l5.93-9.72c.51-.836 1.494-.953 2.186-.26l16.11 16.112c.693.692 1.825.692 2.517 0l3.773-3.774c.692-.692.692-1.823 0-2.515L52.998 47.035c-.692-.693-.574-1.674.26-2.185l9.72-5.93z" stroke="#2E8AE6" stroke-width="2" stroke-linecap="round"/></g></g></g></g></g></svg><svg width="80" height="70" viewBox="0 0 80 70" id="house" y="79.875"><title>Фотки</title><desc>Created with Sketch.</desc><g fill="none" fill-rule="evenodd"><g transform="translate(-562 -3772)" stroke-width="2"><g transform="translate(305)"><g transform="translate(240 3772)"><g transform="translate(17)"><g stroke="#2E8AE6"><path d="M0 5.006C0 2.24 2.242 0 4.996 0h53.008c2.76 0 6.535 1.63 8.426 3.632l10.14 10.736C78.464 16.374 80 20.234 80 23.01v41.98c0 2.767-2.244 5.01-5.004 5.01H5.004C2.24 70 0 67.77 0 64.994V5.006z"/><path d="M60 6v12c0 1.657 1.342 3 3.003 3H74" id="cLine" stroke-linecap="square"/></g><g transform="translate(21 22)" stroke="#FF4C4C"><path d="M5 10v15c0 .552.446 1 .993 1h25.014c.548 0 .993-.445.993-1V10" id="cPath-106" stroke-linecap="round"/><path d="M14 25V14h9v11" stroke-linejoin="round"/><path d="M0 15L17.064-1.562c.793-.77 2.073-.776 2.872 0L37 15" stroke-linecap="round"/></g></g></g></g></g></g></svg><svg width="102" height="79.875" viewBox="-0.875 -0.875 102 79.875" enable-background="new -0.875 -0.875 102 79.875" id="love"><title>Дизайн</title><desc>Created with Sketch.</desc><g><g transform="translate(-311 -3772)"><g transform="translate(305 3672)"><g transform="translate(0 99)"><g transform="translate(5)"><path fill="none" stroke="#2E8AE6" stroke-width="2" d="M1 5.996C1 3.236 3.23 1 5.993 1h90.014C98.765 1 101 3.242 101 5.996v53.008c0 2.76-2.235 4.996-5.007 4.996H63l.576 4.03c.234 1.64 1.62 3.568 3.11 4.313l3.52 1.76C71.195 74.597 72 75.887 72 77v.99c0 .558-.443 1.01-.996 1.01H30.997c-.55 0-.997-.443-.997-1.01V77c0-1.104.796-2.398 1.795-2.897l3.52-1.76c1.482-.74 2.875-2.676 3.11-4.31L39 64H6.007C3.242 64 1 61.758 1 59.004V5.996z"/><path fill="none" stroke="#FF4C4C" stroke-width="2" d="M67.33 33.903c4.26-7.505 1.677-13.86-3.707-16.347-5.06-2.327-11.054-.144-13.39 4.898-2.345-5.042-8.34-7.226-13.408-4.898-5.375 2.485-7.948 8.842-3.697 16.347 3.02 5.332 7.76 9.37 17.105 16.568C59.57 43.274 64.31 39.235 67.33 33.904z"/><path fill="#2E8AE6" d="M26 62h50v2H26z"/></g></g></g></g></g></svg></svg>