<?xml version="1.0" encoding="utf-8"?><!DOCTYPE svg PUBLIC "-//W3C//DTD SVG 1.1//EN" "http://www.w3.org/Graphics/SVG/1.1/DTD/svg11.dtd"><svg width="240" height="240" viewBox="0 0 240 240" xmlns="http://www.w3.org/2000/svg" xmlns:xlink="http://www.w3.org/1999/xlink"><svg width="120" height="120" viewBox="-595.5 420.5 120 120" enable-background="new -595.5 420.5 120 120" id="bigphoto"><g fill="none" stroke-width="2" stroke-miterlimit="10"><path stroke="#2E8AE6" stroke-linecap="round" stroke-linejoin="round" d="M-575.5 452.506c0-2.766 2.242-5.006 4.996-5.006h53.008c2.76 0 6.535 1.63 8.426 3.63l10.14 10.737c1.896 2.006 3.43 5.867 3.43 8.643v41.98c0 2.766-2.243 5.01-5.003 5.01h-69.992c-2.764 0-5.004-2.23-5.004-5.006v-59.988z"/><path stroke="#2E8AE6" stroke-linejoin="round" d="M-515.5 453.5v12c0 1.656 1.342 3 3.004 3h10.996"/><path stroke="#FF4D4D" d="M-549.5 480.06v14.44c0 .552.445 1 .992 1h25.016c.55 0 .992-.444.992-1v-14.44"/><path stroke="#FF4D4D" stroke-linejoin="round" d="M-540.5 495.5v-12h9v12"/><path stroke="#FF4D4D" stroke-linecap="round" d="M-554.5 484.5l17.064-16.562c.793-.77 2.072-.775 2.87 0L-517.5 484.5"/></g></svg><svg width="120" height="120" viewBox="-595.5 420.5 120 120" enable-background="new -595.5 420.5 120 120" id="clicks" x="120"><path fill="none" stroke="#2E8AE6" stroke-width="2" stroke-linecap="round" stroke-linejoin="round" stroke-miterlimit="10" d="M-508.582 486.016c.834-.51.76-1.178-.17-1.486l-36.66-12.092c-.928-.307-1.437.203-1.13 1.133l12.093 36.66c.307.93.974 1.005 1.483.17l5.93-9.72c.51-.836 1.494-.953 2.186-.26l16.11 16.11c.693.692 1.825.692 2.517 0l3.773-3.772c.692-.69.692-1.824 0-2.516l-16.112-16.11c-.69-.694-.573-1.677.26-2.187l9.72-5.93z"/><g fill="none" stroke="#FF4D4D" stroke-width="2" stroke-linecap="round" stroke-miterlimit="10"><path d="M-545.505 448.5V461M-558.005 473.5h-12.5M-563.182 455.822l8.838 8.84M-527.828 455.823l-8.838 8.838M-554.344 482.34l-8.838 8.837"/></g></svg><svg width="120" height="120" viewBox="-595.5 420.5 120 120" enable-background="new -595.5 420.5 120 120" id="design" y="120"><path fill="none" stroke="#FF4C4C" stroke-width="2" stroke-linecap="round" stroke-linejoin="round" d="M-518.4 480.934c2.13-3.752 2.548-7.217 1.763-10.055-.785-2.84-2.777-5.05-5.47-6.292-2.53-1.164-5.292-1.2-7.716-.312-2.422.887-4.505 2.7-5.674 5.225-1.172-2.52-3.257-4.338-5.683-5.224-2.425-.887-5.19-.852-7.725.312-2.688 1.242-4.675 3.452-5.458 6.29-.784 2.84-.364 6.304 1.76 10.056 1.51 2.667 3.45 5.01 6.18 7.585 2.732 2.573 6.254 5.387 10.926 8.98 4.668-3.6 8.188-6.407 10.918-8.98 2.727-2.578 4.67-4.92 6.18-7.586z"/><path fill="none" stroke="#2E8AE6" stroke-width="2" d="M-522.5 509.5c0 7 6 7.157 6 10 0 2-1 3-2 3h-34s-2-1-2-3c0-3.165 6-3 6-10"/><path fill="none" stroke="#2E8AE6" stroke-width="2" d="M-485.5 504.58c0 2.706-2.25 4.92-5 4.92h-90c-2.75 0-5-2.214-5-4.92v-52.16c0-2.706 2.25-4.92 5-4.92h90c2.75 0 5 2.214 5 4.92v52.16z"/></svg><svg width="120" height="120" viewBox="-595.5 420.5 120 120" enable-background="new -595.5 420.5 120 120" id="stats" x="120" y="120"><g fill="none" stroke-width="2" stroke-miterlimit="10"><path stroke="#FF4D4D" d="M-525.5 463.502c0-1.105.902-2.002 2.008-2.002h7.983c1.11 0 2.01.898 2.01 2.002v38.996c0 1.105-.903 2.002-2.01 2.002h-7.982c-1.11 0-2.008-.898-2.008-2.002v-38.996zM-543.5 478.49c0-1.1.902-1.99 2.008-1.99h7.983c1.11 0 2.01.898 2.01 1.99v24.018c0 1.1-.903 1.992-2.01 1.992h-7.982c-1.11 0-2.008-.9-2.008-1.992V478.49zM-561.5 487.496c0-1.102.902-1.996 2.008-1.996h7.983c1.11 0 2.01.89 2.01 1.996v15.006c0 1.104-.903 1.998-2.01 1.998h-7.982c-1.11 0-2.008-.89-2.008-1.998v-15.006z"/><path stroke="#2E8AE6" stroke-linecap="round" stroke-linejoin="round" d="M-575.5 447.5v65c0 2.762 2.23 5.002 5 5.002h73"/></g></svg></svg>